<?xml version="1.0" encoding="utf-8"?>
<!-- Generator: Adobe Illustrator 24.1.1, SVG Export Plug-In . SVG Version: 6.00 Build 0)  -->
<svg version="1.1" id="Layer_1" xmlns="http://www.w3.org/2000/svg" xmlns:xlink="http://www.w3.org/1999/xlink" x="0px" y="0px"
	 viewBox="0 0 1080 1080" style="enable-background:new 0 0 1080 1080;" xml:space="preserve">
<style type="text/css">
	.st0{fill:#F4C2FF;}
	.st1{fill:#001A33;}
	.st2{fill:#FDF4D5;}
	.st3{fill:#896B91;}
	.st4{fill:#2F0F14;}
	.st5{fill:#1F589F;}
	.st6{fill:#F4C2FE;}
	.st7{fill:#422128;}
	.st8{fill:#F3C2FE;}
	.st9{fill:#F17140;}
	.st10{fill:#56353C;}
	.st11{fill:#4A1C26;}
	.st12{fill:#FAB302;}
	.st13{fill:#56353D;}
	.st14{fill:#F6B10A;}
	.st15{fill:#FBF3D5;}
	.st16{fill:#DA9806;}
	.st17{fill:#0D304D;}
	.st18{fill:#FBF2D5;}
	.st19{fill:#0C314D;}
	.st20{fill:#20589E;}
	.st21{fill:#F7B30D;}
	.st22{fill:#21589F;}
	.st23{fill:#596196;}
	.st24{fill:#F0C0F6;}
	.st25{fill:#D8D6D7;}
	.st26{fill:#2E131A;}
	.st27{fill:#DDAC51;}
	.st28{fill:#E4BDE7;}
	.st29{fill:#853D2B;}
	.st30{fill:#FCF3D5;}
	.st31{fill:#FAB301;}
	.st32{fill:#0C314E;}
	.st33{fill:#011A33;}
	.st34{fill:#F07141;}
	.st35{fill:#F07240;}
	.st36{fill:#DA9702;}
	.st37{fill:#D0A2D4;}
	.st38{fill:#FCF3D4;}
	.st39{fill:#ED7243;}
	.st40{fill:#051A34;}
	.st41{fill:#FAF1D4;}
	.st42{fill:#8F3828;}
	.st43{fill:#F8B210;}
	.st44{fill:#2A579B;}
	.st45{fill:#E6A235;}
	.st46{fill:#875B85;}
	.st47{fill:#292846;}
	.st48{fill:#315899;}
	.st49{fill:#F7BDB1;}
	.st50{fill:#935618;}
	.st51{fill:#87707C;}
	.st52{fill:#9C6228;}
	.st53{fill:#D1A2D5;}
	.st54{fill:#886B90;}
	.st55{fill:#0D314E;}
	.st56{fill:#BCAC9A;}
	.st57{fill:#9B8383;}
	.st58{fill:#988180;}
	.st59{fill:#031A34;}
	.st60{fill:#77537F;}
	.st61{fill:#0D304E;}
	.st62{fill:#7C5985;}
	.st63{fill:#7D7E7A;}
	.st64{fill:#8A979E;}
	.st65{fill:#828E96;}
	.st66{fill:#808E97;}
	.st67{fill:#87939B;}
	.st68{fill:#818D98;}
	.st69{fill:#93A4B1;}
	.st70{fill:#EA7848;}
	.st71{fill:#E97946;}
	.st72{fill:#896B90;}
	.st73{fill:#2C5B99;}
	.st74{fill:#325E92;}
	.st75{fill:#796E5D;}
	.st76{fill:#948C7B;}
	.st77{fill:#7C7160;}
	.st78{fill:#9A9180;}
	.st79{fill:#FBF3D6;}
	.st80{fill:#897E6C;}
	.st81{fill:#887E6B;}
	.st82{fill:#8B816F;}
	.st83{fill:#7E7361;}
	.st84{fill:#7A715F;}
	.st85{fill:#A38B8C;}
	.st86{fill:#978180;}
	.st87{fill:#D1A3D4;}
	.st88{fill:#C8BDAD;}
	.st89{fill:#807CAE;}
	.st90{fill:#7A78AC;}
	.st91{fill:#CBBBB4;}
	.st92{fill:#576194;}
	.st93{fill:#7D392A;}
	.st94{fill:#7F3928;}
	.st95{fill:#565978;}
	.st96{fill:#8CAEC6;}
	.st97{fill:#90A5B1;}
	.st98{fill:#32141A;}
	.st99{fill:#F3C3F6;}
	.st100{fill:#403454;}
	.st101{fill:#DB9607;}
	.st102{fill:#FBD65B;}
	.st103{fill:#995A1A;}
	.st104{fill:#8D3C19;}
	.st105{fill:#DA9703;}
	.st106{fill:#F6EDD4;}
	.st107{fill:#F7EED5;}
	.st108{fill:#F9F2D7;}
	.st109{fill:#F8F3D8;}
	.st110{fill:#F1ECD7;}
	.st111{fill:#8A867D;}
	.st112{fill:#79796F;}
	.st113{fill:#75766A;}
	.st114{fill:#77786D;}
	.st115{fill:#AFACA3;}
	.st116{fill:#BEC4BD;}
	.st117{fill:#ECE8D1;}
	.st118{fill:#F2ECD5;}
	.st119{fill:#EAE5D1;}
	.st120{fill:#929693;}
	.st121{fill:#F7F2D7;}
	.st122{fill:#F5F2D9;}
	.st123{fill:#76766C;}
	.st124{fill:#727269;}
	.st125{fill:#D6C4B2;}
	.st126{fill:#F7F2D9;}
	.st127{fill:#4A262C;}
	.st128{fill:#686B60;}
	.st129{fill:#B2B5C6;}
	.st130{fill:#F6EDD1;}
</style>
<g>
	<path class="st0" d="M303.25,451.8c2.77-7.77,5.72-15.48,8.29-23.32c11.66-35.57,21.81-71.74,40.52-104.54
		c10.88-19.07,24.34-35.92,43.98-46.88c17.89-9.99,37.15-12.27,57.16-10.29c22.84,2.26,44.19,9.6,64.52,19.89
		c33.97,17.2,57.04,44.53,72.1,79.06c13.8,31.65,19.28,65.52,26.63,98.93c3.47,15.78,8.44,31.28,13.67,46.59
		c3.12,9.14,9.77,16.17,18.23,21.19c-10.8,4.76-15.56,14.33-19.42,24.55c-2.71,7.17-5.25,14.41-7.71,21.67
		c-1.21,3.58-2.55,4.98-6.52,2.74c-5.23-2.94-10.9-5.1-16.39-7.59c-2.79-3.94-5.58-7.88-8.38-11.82c-1.43-1.27-2.87-2.55-4.3-3.82
		c3.35-3.51,6.77-6.96,10.02-10.56c0.81-0.9,1.1-2.28,1.62-3.43c-1.24,0.53-2.75,0.78-3.68,1.65c-3.54,3.31-6.89,6.81-10.32,10.24
		c-1.36-0.75-2.73-1.5-4.09-2.25c-0.84-0.37-1.82-1.22-2.5-1.03c-2.38,0.69-6.68-1.13-5.53,4.65c0.32,1.63-2.76,4.26-4.71,5.94
		c-2.18,1.88-3.17,8.4-1.11,10.33c0.07,0.21,0.2,0.36,0.39,0.47c-3.76,3.24-7.58,6.42-11.23,9.78c-0.82,0.76-1.58,2.29-1.38,3.25
		c0.2,0.95,1.6,2.17,2.59,2.29c1,0.12,2.45-0.7,3.17-1.56c3.16-3.76,6.13-7.68,9.17-11.54c5.37,4.59,10.73,9.18,16.1,13.78
		c0.7,1.04,1.18,2.38,2.14,3.07c12.13,8.81,24.32,17.53,36.49,26.27c-0.72,4.04-1.45,8.09-2.17,12.13
		c-1.72,2.58-3.44,5.16-5.16,7.74c-1.31,0.45-2.6,1.02-3.94,1.33c-7.82,1.82-15.87,2.94-23.4,5.58c-5.01,1.76-7.66,2.54-7.39-3.98
		c-0.31-4.28-0.63-8.56-0.94-12.84c-2.5-2.09-4.73-5.47-7.54-6.04c-11.09-2.24-22.36-4.97-33.55-4.94
		c-15.52,0.05-31.04,2.43-46.56,3.81c-17.6-14.52-35.2-29.04-52.8-43.55c-0.01-0.25-0.02-0.51-0.02-0.76
		c0.28-2.07,0.57-4.14,0.85-6.21c10.14-4.65,20.3-9.26,30.4-13.99c1.76-0.82,3.27-2.17,4.9-3.27c2.44-1.43,4.88-2.85,7.32-4.28
		c6.41-3.59,12.81-7.18,19.22-10.77c10.08,7.67,18.28,8.03,27.13,1.18c7.93-5.12,9.85-10.36,6-22.03
		c-5.22-15.82-2.34-29.17,9.11-41.32c8.26-8.77,7.99-18.7-0.4-26.54c-10.66-9.96-23.62-14.51-38.19-13.41
		c-9.85,0.75-12.58,7.9-6.54,16.01c0.1,0.46,0.19,0.91,0.29,1.37c-0.97,2.84-1.94,5.68-2.91,8.53c-0.02,5.68-0.04,11.36-0.05,17.05
		c0,0-0.01-0.01-0.01-0.01c-0.73,0.51-1.45,1.01-2.18,1.52c-0.71-0.86-1.41-1.72-2.12-2.59c-0.88-1.07-1.71-2.19-2.66-3.21
		c-2.38-2.54-4.75-5.1-7.25-7.53c-1.36-1.33-2.97-2.4-4.47-3.58c-2.06-5.39-3.96-10.91-10.55-12.46l0.01,0.01
		c-1.02-2.52-1.36-5.87-3.21-7.38c-3.74-3.08-8.29-5.17-12.51-7.67c-3.59-2.86-7.63-5.44-11.75-1.76
		c-8.9,7.94-17.42,16.32-26.09,24.52c-0.29,0.55-0.59,1.1-0.88,1.64c-4.3,1.26-8.59,2.52-12.89,3.78
		c-3.79-2.81-7.58-5.62-11.37-8.43c-1.99-1.47-3.98-2.93-5.97-4.4c1.3-1.22,3.13-2.2,3.8-3.7c1.55-3.48,4.5-8.23,3.28-10.6
		c-1.73-3.36-6.56-6.58-10.36-6.95c-3.07-0.3-7.71,2.98-9.57,5.97c-2.26,3.63-3.53,5.37-7.91,3.49c-1.5-0.64-4.12,0.55-5.88,1.52
		c-4.61,2.53-3.55,6.67-4.03,11.07c-0.31,2.86-6.96,5.1-6.25,10.62c1.28,9.81,16.4,21.02,26.22,19.41c0.51,1.83,1.02,3.66,1.53,5.48
		c0.07,1.27,0.15,2.55,0.22,3.82c-8.91,2.44-16.2,13.52-17.09,25.15c-0.71,9.34,2.73,17.3,7.17,25.07
		c-0.28,2.12-0.56,4.24-0.84,6.35c-1.39,11.69-2.79,23.37-4.13,35.07c-0.08,0.67,0.45,1.41,0.7,2.12
		c-3.22,21.95-6.43,43.9-9.65,65.84c-4.18,28.4-8.37,56.8-12.55,85.21c-0.67-0.78-1.51-1.46-1.98-2.34
		c-13.02-24.1-26.03-48.2-38.96-72.35c-0.75-1.4-1.18-3.11-1.28-4.7c-0.92-14.19-1.73-28.38-2.57-42.57
		c-0.78-17.77-1.55-35.54-2.33-53.31c0.24-2.06-0.17-4.54,0.84-6.09c3.01-4.58,7.16-8.46,9.84-13.2
		C317.69,513.2,316.34,482.63,303.25,451.8z M531.52,426.48c7.05,4.28,14.01,8.01,20.42,12.52c11.91,8.39,14.01,20.28,6.32,32.67
		c-3.5,5.64-7,11.29-10.35,17.02c-0.61,1.03-0.49,2.49-0.8,4.26c3.51-4.4,6.96-7.77,9.25-11.79c4.15-7.27,9.89-14.65,10.87-22.5
		C569.18,443.28,548.91,425.94,531.52,426.48z M519.54,613.81c17.12-11.46,34-7.76,50.81,0.87
		C556.53,603.25,530.73,602.81,519.54,613.81z M544.84,602.71c10.08-1.84,18.42,1.98,27.43,9.46
		C565.69,603.5,552.27,599.34,544.84,602.71z"/>
	<path class="st0" d="M874.62,371.95c1.27-0.08,2.78,0.26,3.77-0.31c17.85-10.25,36.47-17.59,57.57-16.93
		c21.42,0.67,39.53,9.28,55.3,23.06c23,20.1,34.98,46.82,43.76,75.27c9.32,30.22,14.72,61.25,16.33,92.75
		c1.71,33.51,2.65,67.1,2.71,100.65c0.04,21.4-1.78,42.83-3.43,64.19c-1.49,19.18-1.53,38.88-11.28,56.3
		c-4.82,8.6-11.15,16.35-16.76,24.51c-0.73,1.06-1.25,2.27-1.86,3.42c-0.66,0.02-1.32,0.03-1.98,0.05c-0.32-0.4-0.64-0.8-0.96-1.19
		c-1.35-0.57-2.71-1.15-4.06-1.72c-0.57-0.22-1.15-0.43-1.72-0.65c-2.6-5.42-5.2-10.83-7.81-16.25c0.46-0.46,0.94-1.34,1.37-1.32
		c4.76,0.21,3.35-2.1,2.05-4.61c-2.45-4.74-4.99-9.45-7.1-14.35c-4.36-10.12-8.45-20.35-12.66-30.53c0-2.35,0.01-4.69,0.01-7.04
		c-0.16-2.18-0.31-4.37-0.47-6.55c-1.87-21.52-8.55-41.68-17.51-61.15c-2.68-5.83-9.98-6.37-14.13-1.43
		c-1.59,1.89-3.27,3.7-4.91,5.54c-0.71-1.21-1.48-2.4-2.11-3.65c-6.19-12.32-12.37-24.66-18.54-36.99
		c-1.65-12.18,2.59-16.91,12.22-13.62c7.76,2.66,9.18,1.97,12.15-5.93c0.58-1.55,1.07-3.15,1.49-4.75
		c6.32-24.49-1.41-37.1-25.54-42.98c-18.73-4.57-31.57-17.7-43.55-31.77c-0.15-0.18,0.17-0.75,0.27-1.14
		c4.09,0.37,8.17,0.89,12.27,1.07c9.33,0.4,10.34-0.68,10-10.03c-2.34-23.19-4.61-46.38-7.18-69.54c-0.12-1.11-2.8-1.93-4.28-2.89
		c-1.65-2.28-3.27-4.6-4.97-6.84c-6.64-8.74-13.13-17.68-24.3-21.26c-0.01-1.17-0.03-2.34-0.04-3.51c-0.01-0.78-0.01-1.55-0.02-2.33
		c0.05-0.22,0.09-0.44,0.12-0.67C875.97,389.76,876.83,381.22,874.62,371.95z M919.11,504.27c-0.12,0.63-0.33,1.26-0.36,1.9
		c-0.38,8.02,6.28,15.2,16.36,19.92c7.72,3.62,15.79,7.66,21.79,13.48c9.48,9.2,9.96,22.03,9.6,34.58
		c-0.03,0.94,0.25,1.89,0.39,2.84c0.57-0.89,1.44-1.72,1.65-2.69c0.39-1.84,0.44-3.76,0.56-5.64c0.97-14.85-2.31-28.14-14.78-37.6
		c-3.73-2.83-8.03-5.04-12.32-6.96C932.38,519.8,922.72,515.74,919.11,504.27z"/>
	<path class="st0" d="M124.1,803.7c-6.28-17.08-20.96-27.95-31.26-42.07c-22.19-30.43-42.01-62.1-54.93-97.65
		c-8.54-23.49-13.44-47.79-11.56-72.88c1.99-26.62,11.78-50.22,29.22-70.71c15.74-18.5,35.42-29.78,59.19-33.95
		c18.04-3.17,36.13-2.07,54.1,0.71c17.87,2.77,35.68,5.9,53.52,8.88c2.58,4.32,5.15,8.63,7.73,12.95
		c-2.06,3.54-4.11,7.08-6.17,10.62c-5.99,10.71-12.02,21.4-17.89,32.17c-0.49,0.91,0.08,2.39,0.16,3.61
		c-15.93,20.09-32.35,39.82-47.54,60.46c-6.1,8.29-12.14,18.18-13.6,28.03c-6.53,43.87-11.42,87.99-16.84,132.02
		c-0.5,4.09-0.64,8.24-0.95,12.35c4.13,0.14,8.25,0.28,12.38,0.42C134.46,793.66,129.28,798.68,124.1,803.7z"/>
	<path class="st1" d="M729.55,506.09c1.49-13.61,5.77-26.08,14.94-36.56c1.65,0.59,3.37,1.06,4.96,1.8
		c11.03,5.11,22.03,10.28,33.04,15.42c0.48,0,0.95,0,1.43,0c2.57-9.04,5.37-18.03,7.6-27.15c0.81-3.31,2.12-4.68,5.37-4.31
		c21.84,5,43.68,10,65.53,14.99c0.65,10.71,1.31,21.43,1.96,32.14c-10.31-2.56-20.7-4.88-30.91-7.77
		c-6.72-1.91-13.21-4.65-20.81-7.38c3.13,5.48,5.69,9.96,8.25,14.45c3.86,7.14,7.72,14.28,11.58,21.41
		c-1.76,0.69-3.53,1.38-5.29,2.07c-4.98,1.17-9.97,2.35-14.95,3.52c-3.72,0.82-7.44,1.63-11.16,2.45c-4.37,1.09-8.74,2.18-13.1,3.27
		c-3.97,0.53-9.15,2.83-11.59,1.14c-2.94-2.02-3.55-7.42-5.17-11.37c-0.36-0.88-0.67-1.77-1.03-2.65c-2.18-5.3-4.36-10.6-7.01-17.03
		c-0.12,1.59-0.21,1.84-0.14,2.03c2.53,6.38,5.04,12.76,7.63,19.12c5.02,12.35,5.04,12.35,18.18,9.39
		c4.37-1.08,8.74-2.17,13.11-3.25c3.72-0.82,7.44-1.63,11.17-2.45c5.36-1.31,10.71-2.63,16.07-3.94c1.55-0.53,3.11-1.06,4.66-1.58
		c6.51-2.06,13.02-4.11,19.52-6.17c0.38,9.68,0.77,19.36,1.15,29.03c-1.96,1.8-3.62,4.47-5.92,5.25
		c-16.07,5.4-32.27,10.4-48.42,15.53c-9.93,2.37-19.86,4.74-29.8,7.11c-4.54,0.23-9.08,0.47-13.61,0.7
		c-1.06-0.69-2.6-1.13-3.11-2.11C742.54,551.95,728.1,531.86,729.55,506.09z"/>
	<path class="st0" d="M248.14,818.51c-15.21-0.01-30.43-0.01-45.64-0.02c-0.27-9.95-0.53-19.9-0.8-29.85
		c0.55-1.03,1.59-2.07,1.57-3.08c-1.31-44.64-2.71-89.28-4.07-133.93c-0.03-0.88,0.02-2.02,0.53-2.63
		c11.86-14.33,23.79-28.6,36.75-44.13c0,4.67-0.17,7.82,0.03,10.94c1.35,20.83-0.29,42.46,4.87,62.31
		c8.77,33.78,21.67,66.49,33.16,99.54c3.82,10.97,4.28,10.81,15.63,10.93c-1.04,2.06-1.72,4.43-3.19,6.11
		c-7.42,8.53-17.24,12.91-27.79,16.39C255.12,812.45,251.8,815.98,248.14,818.51z"/>
	<path class="st0" d="M444.88,822.7c-0.1-4.26-2.8-4.56-6.16-4.24c-2.46,0.23-4.97,0.09-7.45,0.04c-4.26-0.09-9.12-1.19-9.1,5.63
		c0.63-10.21-1.46-13.41-11.04-17.17c-4.19-1.64-8.22-3.84-12.53-5.04c-9.39-2.63-13.4-9.87-16.44-18.08
		c-0.16-0.42,0.75-1.75,1.26-1.81c2.87-0.32,5.77-0.38,8.66-0.53c1.47-13.44,3.33-26.85,4.34-40.32
		c3.13-41.83,5.93-83.69,8.94-125.54c0.06-0.88,1.11-1.68,1.69-2.52c15.77,12.81,31.53,25.63,47.3,38.44
		c0.46,0.24,0.92,0.49,1.38,0.73c-0.18,1.29-0.45,2.57-0.54,3.87c-2.64,38.3-5.44,76.58-7.69,114.9c-0.37,6.37-3.89,13.3,1.27,19.43
		C447.47,801.23,446.17,811.97,444.88,822.7z"/>
	<path class="st2" d="M230.1,508.96c-2.58-4.32-5.15-8.63-7.73-12.95c-8.24-18.23-16.52-36.44-24.66-54.71
		c-0.58-1.29-0.17-3.03-0.22-4.56c1.06,0.02,2.39,0.46,3.13-0.02c5.17-3.35,10-7.28,15.37-10.25c4.73-2.61,6.14-5.58,3.64-10.38
		c-1.51-2.89-0.51-4.13,2.69-3.67c1.99,0.27,4.01,0.41,5.96,0.84c4.25,0.93,6.79,3.15,5.44,7.96c-1.28-1.69-2.56-3.37-3.85-5.06
		c-0.81,2.23-1.65,4.45-2.42,6.7c-0.19,0.55-0.14,1.18-0.2,1.77c-0.35,1.46-0.69,2.92-1.04,4.38c2.4,4.52,4.8,9.03,7.2,13.55
		c0.28,1.44,0.3,2.99,0.86,4.31c8.6,20.29,23.21,37.87,27.32,60.26c0.07-1.74-0.07-3.44-0.35-5.12c-0.48-2.9-2.26-6.24-1.38-8.61
		c5.44-14.64,10.86-29.35,17.55-43.44c3.89-8.2,11.42-8.98,18.92-3.7c6.76,4.75,9.69,11.72,8.57,19.57
		c-3.38,23.77-11.58,45.77-26.13,65.07c-4.37,5.79-9.88,10.03-17.9,8.75c-2.49-1.08-5.69-1.51-7.34-3.34
		C245.51,527.39,237.88,518.11,230.1,508.96z"/>
	<path class="st2" d="M678.34,523.15c1.3,2.56,2.31,5.34,4.02,7.59c0.83,1.08,2.98,1.15,4.53,1.68c5.32,2.19,11.58,3.26,15.77,6.79
		c9.57,8.06,18.27,17.19,27.01,26.18c2.9,2.99,4.85,6.91,7.23,10.4c-3.58,3.12-7.16,6.23-10.74,9.35c-2.85-1.24-6.18-4.05-8.44-3.35
		c-3.46,1.06-6.18,4.53-9.22,6.98c-4.26-5.78-8.53-11.57-12.79-17.35c-2.66-3.7-5.32-7.4-7.98-11.1c-0.3,0.23-0.6,0.46-0.9,0.69
		c2.78,3.63,5.56,7.26,8.34,10.89c3.92,5.62,7.84,11.23,11.77,16.85c-1.38,1.37-2.68,3.82-4.16,3.93c-8.71,0.68-4.79,5.6-3.58,9.68
		c-2.97,1.96-6,3.83-8.86,5.93c-0.86,0.63-1.26,1.91-1.87,2.89c1.16-0.21,2.5-0.12,3.44-0.68c3.16-1.87,6.18-3.98,9.25-5.99
		c3.1,3.04,6.2,6.08,9.3,9.12c-10.97,2.78-21.93,5.56-32.9,8.34c-1.16,4.22-2.32,8.45-3.47,12.67c-2.9-0.28-5.8-0.57-8.7-0.85
		c1.16-32.15,2.32-64.29,3.49-97c2.03,3.19,8.38,0.92,12.44-3.99c-0.99,0.42-1.64,0.63-2.22,0.94c-7.65,4.13-7.64,4.13-9.9-4.26
		c1.14-0.58,2.37-1.04,3.39-1.78C674.59,526.27,676.44,524.67,678.34,523.15z M674.58,554.53c-1.22-0.89-2.03-1.95-2.75-1.89
		c-0.76,0.06-1.44,1.18-2.15,1.84c0.74,0.74,1.39,1.88,2.26,2.09C672.5,556.72,673.39,555.5,674.58,554.53z M673.71,560.67
		c0.38-0.61,0.76-1.23,1.14-1.84c-0.98-0.3-1.98-0.9-2.92-0.82c-0.8,0.08-1.53,0.94-2.29,1.46c0.53,0.76,0.93,1.92,1.64,2.15
		C671.91,561.83,672.88,561.02,673.71,560.67z"/>
	<path class="st3" d="M260.9,539.63c8.01,1.28,13.53-2.95,17.9-8.75c14.55-19.31,22.75-41.31,26.13-65.07
		c1.12-7.85-1.81-14.82-8.57-19.57c-7.5-5.28-15.03-4.49-18.92,3.7c-6.69,14.09-12.11,28.8-17.55,43.44
		c-0.88,2.37,0.9,5.71,1.38,8.61c0.28,1.68,0.42,3.39,0.35,5.12c-4.11-22.4-18.73-39.97-27.32-60.26c-0.56-1.32-0.59-2.87-0.87-4.31
		c0,0,0.09,0.04,0.09,0.04c0.6,1.16,1.19,2.32,1.79,3.47c4.46,8.94,8.92,17.89,13.68,27.46c1.63-3.17,2.9-5.65,4.18-8.13
		c7-10.99,13.99-21.99,20.99-32.98c0.35,0.12,0.7,0.25,1.04,0.37c-4.77,6.47-9.54,12.95-14.31,19.42
		c8.15-12.82,20.84-13.58,34.01-13.19c0.59,0.02,1.18-0.11,1.77-0.17c2.2,4.32,4.39,8.64,6.59,12.96
		c13.09,30.83,14.44,61.41-2.49,91.35c-2.68,4.74-6.83,8.62-9.84,13.2c-1.02,1.55-0.6,4.03-0.84,6.09c0.45-6.36-3.46-6.44-8.35-6.46
		c-21.09-0.1-42.17-0.58-63.25-0.87c-4.09-0.05-8.18,0.16-12.27,0.26c-0.08-1.22-0.66-2.71-0.16-3.61
		c5.87-10.77,11.9-21.46,17.89-32.17c8.04,6.06,15.78,12.62,24.28,17.95C251.56,539.63,256.62,539.01,260.9,539.63z"/>
	<path class="st2" d="M622.78,619.51c-12.18-8.74-24.37-17.46-36.49-26.27c-0.95-0.69-1.44-2.03-2.14-3.07
		c4.72-5.46,9.44-10.91,14.16-16.37c5.48,2.49,11.16,4.65,16.39,7.59c3.97,2.24,5.32,0.84,6.52-2.74c2.45-7.26,5-14.5,7.71-21.67
		c3.86-10.22,8.62-19.79,19.42-24.55c8.7-0.01,9.43-0.68,10.12-9.43c1.78,1.88,3.57,3.77,5.35,5.65c-1.11,2.48-2.21,4.96-3.32,7.44
		c-1.05-0.91-2.1-1.81-3.15-2.72c-0.19,0.25-0.39,0.49-0.58,0.74c1.02,0.87,2.04,1.75,3.07,2.62c1.31,1.06,3.87,2.28,3.75,3.14
		c-1.65,12.09-3.67,24.14-5.59,36.19c-2.93,18.32-5.86,36.63-8.79,54.95c-0.99,0.63-1.98,1.26-2.97,1.89
		c-1.91-0.16-3.82-0.31-5.73-0.47c-5.92-0.33-11.85-0.65-17.77-0.98c0.25-3.4,0.49-6.8,0.74-10.2c1.82-8.22,3.64-16.43,5.46-24.65
		c1.52-7.5,3.04-14.99,4.56-22.49c1.69-7.51,3.38-15.02,5.07-22.53c-0.39-0.09-0.78-0.17-1.17-0.26c-1.53,7.27-3.07,14.54-4.6,21.81
		c-1.53,7.51-3.06,15.02-4.58,22.53c-1.66,7.84-3.32,15.67-4.98,23.51C623.12,619.31,622.96,619.43,622.78,619.51z M620.88,584.61
		c-0.33,0.13-0.66,0.26-0.98,0.39c1.42,3.59,2.84,7.19,4.26,10.78c0.29-0.11,0.59-0.23,0.88-0.34
		C623.65,591.84,622.26,588.22,620.88,584.61z"/>
	<path class="st4" d="M1013.71,791.99c1.35,0.57,2.71,1.15,4.06,1.72c-3.16,1.03-6.32,2.07-9.48,3.1c0.07,0.28,0.13,0.56,0.2,0.84
		c3.41-0.92,6.82-1.83,10.24-2.75c0.66-0.02,1.32-0.03,1.98-0.05c6.37,2.86,12.93,5.39,19.05,8.72c2.94,1.59,5.88,4.25,7.4,7.16
		c3.99,7.63,1.69,11.02-6.67,11.02c-9.61,0-19.23-0.27-28.83,0.07c-10.91,0.38-21.55-0.14-31.36-5.62
		c-1.98-1.01-3.94-2.05-5.94-3.01c-8.06-3.89-8.07-3.88-8.38,5.28c-1.25,1.09-2.47,3.06-3.75,3.11c-6.73,0.24-13.48,0.14-20.2-0.21
		c-1.1-0.06-2.12-1.91-3.17-2.94c1.1-9.7,2.2-19.41,3.29-29.11c8.38-4.27,16.77-8.53,25.15-12.8c10.88-0.99,21.75-2.05,32.65-2.89
		c1.37-0.11,2.82,0.94,4.24,1.46c2.6,5.42,5.2,10.83,7.81,16.25c-3.59,0.75-7.19,1.49-10.78,2.24c0.07,0.32,0.15,0.63,0.22,0.95
		C1005.52,793.69,1009.61,792.84,1013.71,791.99z"/>
	<path class="st5" d="M201.7,788.65c0.27,9.95,0.53,19.9,0.8,29.85c-1.11,10.75-1.11,10.76-12.02,11.24
		c-1.54,0.07-3.1-0.12-4.63,0.03c-6.49,0.63-10.86-1-10.15-8.8c0.06-0.62-2.22-2.2-2.49-2.01c-16.06,11.19-34.26,11.28-52.69,10.46
		c-5.81-0.26-11.65,0.14-17.46-0.19c-1.21-0.07-3.19-1.98-3.3-3.18c-0.7-7.42,2.54-11.92,9.43-14.91c5.09-2.2,9.95-4.94,14.91-7.45
		c5.18-5.02,10.36-10.03,15.54-15.05C160.33,788.65,181.01,788.65,201.7,788.65z"/>
	<path class="st4" d="M831,819.09c2.69,1.23,5.39,2.46,8.08,3.71c6.38,2.97,9.19,8.1,8.38,14.96c-0.15,1.25-2.2,3.23-3.4,3.25
		c-16.15,0.21-32.44,1.35-48.42-0.33c-9.04-0.95-17.65-6.46-26.3-10.27c-2.71-1.2-3.98-1.18-3.71,1.9
		c0.69,7.79-3.32,9.79-10.23,9.08c-4.59-0.47-9.27-0.13-13.85-0.68c-1.24-0.15-3.2-2.16-3.22-3.35c-0.08-5.32,0.42-10.65,0.71-15.98
		c0.96-5.46,1.92-10.92,2.89-16.38c1.44-0.88,2.9-2.54,4.33-2.53c10.88,0.13,21.76,0.6,32.64,0.96c1.29,0.06,2.59,0.1,3.88,0.17
		c8.66,0.47,17.33,0.95,25.99,1.42c0.78,1.63,1.56,3.26,2.33,4.89c-3.68,1.08-7.36,2.16-11.04,3.24c0.03,0.18,0.06,0.36,0.09,0.53
		c4.32-0.77,8.64-1.54,12.96-2.31c1.18,0.51,2.35,1.02,3.53,1.53c-3.11,1.07-6.22,2.14-9.34,3.21c0.07,0.28,0.15,0.55,0.22,0.83
		c3.32-0.92,6.64-1.84,9.96-2.76C821.99,815.82,826.49,817.45,831,819.09z"/>
	<path class="st5" d="M248.14,818.51c3.66-2.53,6.98-6.06,11.03-7.4c10.55-3.48,20.37-7.86,27.79-16.39
		c1.47-1.68,2.14-4.06,3.19-6.11c15.93-0.99,31.86-1.98,47.8-2.97c2.37,0.97,4.74,1.94,7.11,2.91c3.26,8.75,6.51,17.5,9.77,26.26
		c3.25,10.37-4.83,10.19-10.99,11.8c-1.03,0.27-2.17,0.36-3.06,0.88c-4.45,2.62-7.75,0.22-11.04-2.38c0.14-2.03,0.28-4.06,0.42-6.09
		c-1.7,0.1-3.41,0.2-5.11,0.3c-17.29,9.46-35.94,11.41-55.22,10.21c-5.56-0.35-11.21-0.56-16.73-0.03c-6.2,0.6-6.81-2.44-5.83-7.18
		C247.53,821.04,247.85,819.78,248.14,818.51z"/>
	<path class="st0" d="M687.81,818.52c-1.7,0.68-3.4,1.36-5.1,2.05c0.36-4.57-0.88-8.13-5.87-9.34c-0.69-0.12-1.38-0.23-2.07-0.35
		c-0.27-0.3-0.53-0.61-0.8-0.91c-3.94-6.18-7.88-12.36-11.82-18.54c1.03-0.78,1.96-1.79,3.11-2.3c19.4-8.73,31.68-23.38,36.57-44.1
		c3.61-15.31,2.77-30.68,0-46c-0.51-2.84,0.18-3.07,2.68-2.49c4.97,1.16,10.01,2.01,15.02,3c0.02,27.55,0.06,55.1,0.01,82.64
		c0,1.15-0.6,2.54-1.38,3.4C708.09,796.6,697.94,807.55,687.81,818.52z"/>
	<path class="st0" d="M862.41,470.28c-21.84-5-43.68-10-65.53-14.99c-4.07-0.5-8.14-1-12.22-1.5
		c18.61-18.01,37.23-36.01,55.83-54.03c0.93-0.9,1.76-1.9,2.63-2.86c0,0,0.33,0,0.33,0l0.33,0c-0.02,3.13,0.98,6.74-0.22,9.3
		c-5.69,12.1-2.5,23.9,1.84,34.96c2.12,5.41,2.86,9.88,1.57,15.13c-0.23,0.93-0.28,1.91-0.41,2.86c1.19-1.34,1.71-2.86,2.22-4.38
		c2.08-6.23-1.35-11.51-2.47-17.28c-2.05-10.62-2.62-21.63,2.13-32.08c1.82-4,1.71-7.88-2.42-10.69c-0.01-0.22-0.01-0.44-0.02-0.66
		c2.39-2.16,4.78-4.32,7.18-6.48c1.67,4.95,3.34,9.91,5.01,14.86c-0.26,0.26-0.51,0.52-0.77,0.79c-3.75,1.61-3.62,3.52-0.56,5.85
		c0.82,0.62,1.31,1.67,1.95,2.52c-0.69,1.48-1.38,2.95-2.08,4.43c-0.76,1.52-2.22,3.07-2.16,4.56c0.18,4.1,1.77,8.25,1.34,12.23
		c-0.48,4.43,1.09,6.17,4.94,6.9c0.15,2.12,0.36,4.23,0.46,6.35C861.72,454.14,862.06,462.21,862.41,470.28z"/>
	<path class="st0" d="M571.17,820.58c-1.19-0.69-2.36-1.92-3.58-1.98c-5.21-0.22-10.45,0.13-15.66-0.17c-3.92-0.23-6.91,0.12-6.89,5
		c0.81-8.8-3.57-13.85-11.52-16.84c-6.52-2.45-12.86-5.4-19.14-8.4c-1.48-0.71-2.43-2.53-3.62-3.84
		c7.22-7.37,14.53-14.66,21.59-22.19c1.36-1.45,2.47-3.79,2.48-5.73c0.17-25.19,0.13-50.38,0.14-75.57
		c2.33,0.01,4.65,0.01,6.98,0.02c0.02,24.92-0.03,49.84,0.2,74.76c0.02,2.34,1.35,5.15,2.97,6.92c6.71,7.36,13.89,14.28,20.63,21.6
		c4.45,4.83,8.45,10.08,12.65,15.14c-0.2,0.68-0.4,1.36-0.59,2.04C572.84,812.43,570.38,815.34,571.17,820.58z"/>
	<path class="st4" d="M444.88,822.7c1.3-10.73,2.59-21.47,3.89-32.2c0.96-0.65,1.88-1.77,2.9-1.87c4.43-0.45,8.89-0.6,13.34-0.86
		c8.8-0.45,17.59-0.91,26.39-1.36c3.68,10.09,9.73,17.26,20.09,22.02c7.75,3.56,13.78,10.85,20.57,16.48
		c-11.75,0.05-23.55,0.81-35.22-0.16c-6-0.5-11.75-4.08-17.61-6.27c-1.62-0.88-3.31-1.67-4.86-2.67c-3.45-2.23-4.97-1.51-4.37,2.7
		c0.18,5.53-2.6,7.29-7.88,6.77c-4.57-0.45-9.22-0.07-13.81-0.4C447.12,824.8,446.02,823.46,444.88,822.7z"/>
	<path class="st0" d="M667.67,818.49c-27.6,0-55.2,0-82.8,0c-1.92-2.39-3.85-4.77-5.77-7.16c0.07-0.37,0.14-0.74,0.21-1.1
		c0.2-0.58,0.39-1.17,0.59-1.75c3.29-5.46,6.33-11.1,10.05-16.25c1-1.39,4.44-2.3,6.15-1.7c18.13,6.32,36.46,7.66,55.16,3.09
		c0.23,0,0.44-0.04,0.66-0.11c0.7-0.2,1.41-0.39,2.11-0.59c1.7-0.52,3.4-1.03,5.1-1.55c0.66,0.03,1.32,0.06,1.98,0.09
		c0,0,0.05,0.05,0.05,0.05c4.03,6.14,8.05,12.28,12.08,18.42C671.38,812.78,669.52,815.64,667.67,818.49z"/>
	<path class="st6" d="M831,819.09c-4.51-1.63-9.02-3.26-13.53-4.89c-0.28-0.43-0.56-0.85-0.84-1.28c-1.18-0.51-2.35-1.02-3.53-1.53
		c-0.67-0.49-1.34-0.98-2.01-1.47c-0.78-1.63-1.56-3.26-2.33-4.89c1.79-1.87,4.2-3.45,5.23-5.68c2.24-4.86,3.77-10.05,5.59-15.1
		c11.27,4.49,22.23,10.31,33.91,13.06c9.23,2.17,19.36,0.56,29.08,0.62c1.25,0.19,2.52,0.62,3.76,0.54
		c6.52-0.39,13.04-0.91,19.55-1.39c-1.63,7.85-3.25,15.71-4.88,23.56c-0.73-0.71-1.46-2.03-2.19-2.03
		c-22.29-0.07-44.58-0.02-66.87,0.03C831.64,818.64,831.32,818.93,831,819.09z"/>
	<path class="st0" d="M736.9,575.79c-2.38-3.49-4.33-7.41-7.23-10.4c-8.74-9-17.44-18.12-27.01-26.18
		c-4.19-3.53-10.45-4.6-15.77-6.79c15.95-5.98,29.69-15.54,42.67-26.33c-1.46,25.77,12.99,45.86,24.1,67.12
		c0.51,0.98,2.05,1.42,3.11,2.11c2.26,6.34,4.61,12.65,6.74,19.04c0.67,1.99,0.75,4.18,1.1,6.28c-2.82,1.7-5.64,3.39-8.46,5.09
		c-5.16-8.27-10.31-16.54-15.47-24.81C741.93,577.34,740.62,575.68,736.9,575.79z"/>
	<path class="st7" d="M858.21,402.45c-1.67-4.95-3.34-9.91-5.01-14.86c-1.73-5.41-3.79-10.75-5.12-16.26
		c-3.45-14.27-0.23-22.48,11.7-31.06c-4.58-0.82-9.28-1.19-13.68-2.53c-12.16-3.7-15.43-16.65-5.78-24.89
		c4.52-3.86,10.81-6.67,16.69-7.67c10.74-1.84,18.06,5.08,17.53,16.09c-0.41,8.59-2.28,17.11-3.5,25.66
		c-7.41,3.1-10.8,9.9-9.08,17.68c2.37,10.72,4.57,21.48,6.84,32.23c-0.03,0.22-0.07,0.45-0.12,0.67c-1.2,1.73-2.41,3.46-3.61,5.19
		l-0.3-0.02c-1.89-1.31-3.78-2.62-5.8-4.01C858.7,400.04,858.45,401.24,858.21,402.45z M850.9,322.82c2.98,2.15,4.31,3.1,5.64,4.06
		c-1.26,1.67-2.51,4.71-3.8,4.73c-2.48,0.03-5.83-0.99-7.23-2.81c-1.2-1.57-1.18-6.25,0.02-7.08c3.48-2.41,7.84-4.74,11.82-4.67
		c1.72,0.03,4.09,5.89,4.79,9.37c0.84,4.17,0.2,8.64,0.2,12.98c1.02-4.51,1.73-9.21,0.8-13.56c-0.78-3.66-3.57-9.85-5.28-9.79
		c-4.58,0.17-9.83,2.19-13.37,5.18c-3.55,3-1.94,7.55,1.81,10.37c3.69,2.77,7.53,2.58,10.23-1.32c0.89-1.29,0.7-3.87,0.05-5.47
		C856.2,323.9,853.88,323.79,850.9,322.82z"/>
	<path class="st8" d="M741.94,805c-0.96,5.46-1.92,10.92-2.89,16.38c-1.21-0.96-2.41-2.73-3.63-2.74
		c-15.21-0.21-30.42-0.17-45.64-0.2c9.4-10.35,18.85-20.65,28.13-31.11c1.33-1.5,2.56-3.76,2.57-5.67
		c0.17-25.32,0.25-50.63-0.01-75.95c-0.05-4.58,0.88-6.61,5.63-5.68c0.47,0.05,0.93,0.1,1.4,0.15c0.18,1.39,0.52,2.78,0.52,4.17
		c0.03,25.76-0.01,51.52,0.09,77.28c0.01,1.6,0.5,3.64,1.55,4.73c3.85,4.01,8.03,7.71,12.09,11.53
		C741.81,800.25,741.87,802.63,741.94,805z"/>
	<path class="st4" d="M354.83,814.8c-3.26-8.75-6.51-17.5-9.77-26.26c1.18-1.19,2.17-2.97,3.59-3.43c2.16-0.69,4.71-0.13,6.92-0.74
		c1.67-0.46,3.05-1.94,4.56-2.96c3.8,0.02,7.6,0.04,11.4,0.05c3.45,11.11,7.82,20.87,19.57,26.62c7.69,3.76,13.64,11.09,20.37,16.82
		c-12.32,0.05-24.79,1.28-36.9-0.3C367.68,823.71,361.39,818.22,354.83,814.8z"/>
	<path class="st4" d="M638.05,494.07c-0.55-0.19-1.59-0.52-1.58-0.55c1.47-5.1-3.94-4.45-5.5-6.81c-1.12-1.71-1.68-5.12-0.72-6.65
		c5.67-9,17.29-13.45,27.64-11.26c0.59,0.13,1.48-0.31,2-0.75c4.89-4.19,10.93-2.85,13.44,3.15c0.72,1.72,1.5,3.75,1.25,5.49
		c-1.37,9.44,2.97,15.79,10.33,20.91c2,1.39,4.02,3.33,4.97,5.48c1.09,2.49,2.28,6.44,1.1,8.04c-1.31,1.78-5.24,1.62-7.23,2.11
		c-2.91,1.37-5.28,2.48-7.65,3.6c-2.65-3.29-5.12-6.76-8-9.83c-4.53-4.84,0.71-6.95,2.3-10.27c0.78-1.64,0.23-4.21-0.47-6.08
		c-0.2-0.52-3.91-0.72-4.59,0.11c-3.65,4.45-4.35,1.13-5.41-1.73c-0.49-1.33-0.7-2.96-1.61-3.9c-0.81-0.83-2.82-1.6-3.6-1.16
		C649.06,487.16,643.58,490.66,638.05,494.07z"/>
	<path class="st9" d="M754.02,441.7c0.09-0.21,0.08-0.41-0.03-0.61c-0.25-1.65-0.51-3.29-0.76-4.94c-1.59-0.93-3.18-1.87-4.77-2.8
		c-0.96-2.59-2.49-5.13-2.73-7.78c-0.24-2.57,1.3-5.28,1.22-7.9c-0.14-4.48,0.35-7.67,5.82-8.56c5.43-0.89,10.69-2.8,16.02-4.26
		c3.83,3.89,7.76,7.68,11.37,11.75c0.57,0.65-0.46,2.55-0.39,3.86c0.13,2.32,0.09,4.8,0.89,6.92c2.37,6.3,2.86,11.32-5.94,12.04
		c-0.37,0.03-1.01,1.57-0.85,2.24c0.44,1.81,1.26,3.53,1.92,5.29c-3.98,1.33-7.95,2.66-11.93,3.99c-1.43,0.11-2.87,0.22-4.3,0.33
		c-4.09,0.74-5.42-1.14-5.04-5.02C754.69,444.75,754.21,443.21,754.02,441.7z"/>
	<path class="st9" d="M222.32,412.43c-3.2-0.46-4.19,0.78-2.69,3.67c2.5,4.81,1.09,7.77-3.64,10.38c-5.37,2.97-10.2,6.9-15.37,10.25
		c-0.74,0.48-2.07,0.03-3.13,0.02c-0.73-2.21-1.46-4.42-2.18-6.62c-0.49-1.37-0.97-2.73-1.46-4.1c-1.33-6.43-2.1-13.23-9.9-15.53
		c-0.95-2.38-1.9-4.76-2.85-7.13c0-0.21,0.01-0.42,0.03-0.63c0.4-0.07,0.8-0.13,1.2-0.2c3.81,1,7.61,2.01,11.42,3.01
		c0.12-0.18,0.24-0.36,0.36-0.54c-3.56-1.32-7.12-2.64-10.69-3.97c0.61-0.91,1.22-1.82,1.84-2.73c1-0.02,1.99-0.04,2.99-0.06
		c3.72,1,7.44,2,11.15,3c0.13-0.24,0.27-0.48,0.4-0.72c-3.61-1.21-7.21-2.41-10.82-3.62c0.43-0.97,0.86-1.93,1.29-2.9
		c1.44-0.4,2.89-0.81,4.33-1.21c3.87,1.22,7.74,2.44,11.62,3.66c0.13-0.23,0.27-0.46,0.4-0.69c-3.51-1.36-7.03-2.72-10.54-4.08
		c5.63-5.82,16.17-2.37,19.95,6.69c1.03,2.46,1.31,5.24,1.94,7.87C219.43,408.32,220.88,410.37,222.32,412.43z"/>
	<path class="st9" d="M638.05,494.07c5.53-3.41,11.01-6.92,16.67-10.11c0.78-0.44,2.79,0.33,3.6,1.16c0.91,0.94,1.12,2.56,1.61,3.9
		c1.05,2.85,1.76,6.18,5.41,1.73c0.68-0.82,4.39-0.63,4.59-0.11c0.7,1.87,1.26,4.44,0.47,6.08c-1.59,3.33-6.83,5.43-2.3,10.27
		c2.88,3.08,5.35,6.54,8,9.83c0.75,2.11,1.5,4.22,2.25,6.33c-1.9,1.53-3.75,3.12-5.72,4.55c-1.02,0.74-2.25,1.2-3.39,1.78
		c-0.86,1.13-1.72,2.26-2.58,3.39c-0.95-1.41-1.89-2.82-2.84-4.23c-1.78-1.88-3.57-3.77-5.35-5.65c-0.57-1.02-1.14-2.04-1.71-3.06
		c-6.92,4.15-8.97-1.13-11.12-5.87c-1-2.21-1.15-5.16-4.86-3.19c-0.16,0.08-1.62-1.4-1.7-2.23
		C638.6,503.79,638.37,498.93,638.05,494.07z"/>
	<path class="st1" d="M272.87,392.85c-2.56-3.23-7.65-7.04-7.06-9.54c0.77-3.33,5.93-5.66,9.26-8.35c0.38-0.31,1.25-0.35,1.73-0.14
		c3.5,1.54,6.94,3.56,10.52,0.12c0.15-0.14,1.17,0.2,1.22,0.45c1.73,7.33,9.06,5.09,13.53,7.66c7.21,4.15,11.57,15.71,8.05,23.3
		c-2.16,4.66-2.97,9.93-4.88,14.74c-2.13,5.37-6.89,4.84-11.47,4.26c-0.95-3.99-2.91-7.96,2.9-10.5c1.73-0.76,2.26-4.24,3.33-6.48
		c-2.03-0.96-4.16-1.76-6.04-2.94c-0.97-0.61-1.95-1.83-2.17-2.92c-0.97-4.69-3.7-7.21-8.42-7.86
		C279.85,394.16,276.37,393.45,272.87,392.85z"/>
	<path class="st9" d="M272.87,392.85c3.5,0.61,6.99,1.32,10.51,1.8c4.72,0.64,7.44,3.16,8.42,7.86c0.23,1.1,1.2,2.31,2.17,2.92
		c1.89,1.19,4.02,1.98,6.04,2.94c-1.08,2.24-1.61,5.72-3.33,6.48c-5.81,2.54-3.85,6.51-2.9,10.5c0.22,1.45,0.43,2.89,0.65,4.34
		c-0.04,0.68-0.08,1.35-0.12,2.03c0,0,0.02-0.05,0.02-0.05c-6.37,0.37-12.75,0.74-19.12,1.11c-0.35-0.12-0.7-0.25-1.04-0.37
		c-0.87-2.44-1.18-5.35-2.74-7.21c-2.41-2.87-5.67-5.03-8.58-7.5c-0.3-1.38-0.59-2.77-0.89-4.15c0.57-1.05,1.86-2.35,1.6-3.1
		c-1.87-5.27,0.45-8.61,4.4-11.72C269.91,397.18,271.24,394.83,272.87,392.85z"/>
	<path class="st10" d="M768.79,404.84c-5.33,1.46-10.59,3.37-16.02,4.26c-5.47,0.9-5.96,4.09-5.82,8.56
		c0.08,2.62-1.46,5.33-1.22,7.9c0.25,2.66,1.77,5.19,2.73,7.78c-1.12,0.64-2.19,1.36-3.36,1.89c-2.81,1.29-3.87,1.08-4.36-2.74
		c-0.62-4.78-2.86-9.37-4.54-14c-1.2-3.31-3.2-6.42-3.83-9.81c-1.56-8.47,3.43-12.72,11.56-10.31c2.14-6.85,8.3-8.23,15.59-3.1
		c2.95,2.08,3.51,1.07,3.68-1.75c0.06-0.95-0.11-1.99,0.23-2.82c1.11-2.72,2.14-5.55,3.84-7.89c0.4-0.55,4.22,0.16,4.83,1.23
		c1.77,3.07,4.24,6.98,3.58,9.9C774.79,397.91,771.22,401.24,768.79,404.84z"/>
	<path class="st11" d="M532.06,824.91c-6.79-5.63-12.82-12.93-20.57-16.48c-10.37-4.76-16.41-11.93-20.09-22.02c0,0-0.01,0-0.01,0
		c1.65-0.21,3.31-0.42,4.96-0.63c3.56-0.23,7.12-0.45,10.68-0.68c0.94,2.61,1.89,5.23,2.83,7.84c0.3,0.47,0.6,0.94,0.91,1.4
		c1.19,1.31,2.14,3.14,3.62,3.84c6.29,3.01,12.63,5.95,19.14,8.4c7.94,2.99,12.33,8.05,11.52,16.84
		C540.71,823.92,536.39,824.42,532.06,824.91z"/>
	<path class="st11" d="M411.48,824.91c-6.73-5.73-12.68-13.06-20.37-16.82c-11.76-5.75-16.13-15.51-19.57-26.62
		c6.85,0.01,13.69,0.02,20.54,0.03c-2.89,0.15-5.79,0.21-8.66,0.53c-0.51,0.06-1.41,1.39-1.26,1.81
		c3.05,8.21,7.05,15.45,16.44,18.08c4.31,1.21,8.34,3.4,12.53,5.04c9.58,3.76,11.67,6.96,11.04,17.17
		C418.6,824.39,415.04,824.65,411.48,824.91z"/>
	<path class="st12" d="M181.14,402.74c-0.02,0.21-0.03,0.42-0.03,0.63c-1.46,0.92-2.96,2.68-4.39,2.64
		c-17.54-0.58-27.74,6.98-33.19,20.65c1.11-14.62,2.16-29.25,3.45-43.85c0.13-1.48,1.74-2.83,2.67-4.23c0.97,1.26,2.2,2.4,2.85,3.81
		c4.36,9.37,12.23,14.52,21.44,18.11c2.14,0.66,4.29,1.32,6.44,1.98C180.63,402.56,180.88,402.65,181.14,402.74z"/>
	<path class="st6" d="M942.14,789.33c-1.1,9.7-2.2,19.41-3.29,29.11c-9.07,0.24-18.14,0.49-27.21,0.73
		c3.14-8.04,6.27-16.08,9.41-24.12C928.08,793.15,935.11,791.24,942.14,789.33z"/>
	<path class="st13" d="M921.05,795.05c-3.14,8.04-6.27,16.08-9.41,24.12c-3.06,6.82-6.07,13.66-9.26,20.42
		c-0.47,1-1.8,1.61-2.73,2.4c-0.28-1.11-0.89-2.25-0.78-3.32c0.61-6.02,1.4-12.02,2.13-18.03c1.63-7.86,3.25-15.71,4.88-23.56
		c0.93-1.23,1.86-2.45,2.79-3.68c0.9,0.97,1.81,2.77,2.7,2.76C914.61,796.11,917.83,795.47,921.05,795.05z"/>
	<path class="st10" d="M868.8,396.83c-2.27-10.74-4.47-21.5-6.84-32.23c-1.72-7.78,1.67-14.58,9.08-17.68
		c1.19,8.34,2.39,16.68,3.58,25.02C876.83,381.22,875.97,389.76,868.8,396.83z"/>
	<path class="st14" d="M261.94,413.55c0.3,1.38,0.59,2.77,0.89,4.15c-6.9-0.93-13.79-1.92-20.71-2.7c-0.89-0.1-2.33,0.69-2.78,1.49
		c-1.96,3.43-3.64,7.02-5.42,10.55c-2.57,0.66-5.13,1.31-7.7,1.97c0.35-1.46,0.69-2.92,1.04-4.38c2.15-1.13,4.31-2.27,6.46-3.4
		c1.36-4.82-1.19-7.03-5.44-7.96c-1.95-0.43-3.97-0.57-5.96-0.84c-1.44-2.06-2.89-4.11-4.33-6.17
		C232.64,408.69,247.29,411.12,261.94,413.55z"/>
	<path class="st15" d="M754.02,441.7c0.19,1.51,0.67,3.06,0.52,4.53c-0.39,3.88,0.94,5.76,5.04,5.02c-1.59,1.58-3.6,2.95-4.59,4.85
		c-0.44,0.84,0.84,3.06,1.89,4.12c2.82,2.85,5.9,5.44,8.96,8.04c0.8,0.68,1.87,1.04,2.82,1.54c0.07-1.21,0.48-2.52,0.15-3.6
		c-1.53-5.13-3.27-10.19-4.93-15.28c3.98-1.33,7.95-2.66,11.93-3.99c2.03,2.41,4.06,4.81,6.09,7.22c0.23,4.46,0.47,8.92,0.7,13.38
		c0,1.93,0,3.85,0,5.78c-0.56,0.21-1.13,0.42-1.69,0.64c-2.8-6.05-5.42-12.19-8.52-18.08c-0.97-1.85-3.22-3.04-4.94-4.48
		c-0.09-0.07-0.93,0.41-0.93,0.65c-0.06,1.96-0.46,4.06,0.11,5.84c0.72,2.23,2.55,4.08,3.39,6.28c1.67,4.4,3,8.93,4.46,13.41
		c-0.39,0.14-0.98,0.51-1.13,0.37c-1.86-1.63-3.62-3.38-5.49-5.01c-5.1-4.46-10.23-8.87-15.34-13.3
		C753.02,453.65,753.52,447.68,754.02,441.7z"/>
	<path class="st16" d="M143.53,426.65c5.46-13.66,15.65-21.23,33.19-20.65c1.43,0.05,2.92-1.72,4.39-2.64
		c0.95,2.38,1.9,4.76,2.85,7.13c0,0-0.02-0.01-0.02-0.01c-0.91,0.15-1.82,0.3-2.73,0.45c-1.02,0.33-2.03,0.66-3.05,0.98
		c-2.75-0.64-5.49-1.29-8.24-1.93c-13.45,2.46-18.55,12.53-22.07,24.11c-0.56,1.83-1.67,3.5-2.52,5.25
		c-0.6-1.89-1.47-3.74-1.72-5.67C143.3,431.37,143.53,428.99,143.53,426.65z"/>
	<path class="st17" d="M752.53,459.63c5.12,4.43,10.25,8.85,15.34,13.3c1.86,1.63,3.62,3.38,5.49,5.01
		c0.15,0.13,0.75-0.24,1.13-0.37c2.67,3.06,5.33,6.12,8,9.18c-11.01-5.15-22.01-10.31-33.04-15.42c-1.59-0.74-3.3-1.2-4.96-1.8
		C747.17,466.23,749.85,462.93,752.53,459.63z"/>
	<path class="st18" d="M275.19,432.78c6.38-0.37,12.75-0.74,19.12-1.11c0.78,2.39,1.56,4.78,2.34,7.18
		c-0.59,0.06-1.18,0.19-1.77,0.17c-13.16-0.39-25.85,0.36-34.01,13.19C265.65,445.72,270.42,439.25,275.19,432.78z"/>
	<path class="st19" d="M782.6,467.53c-0.23-4.46-0.47-8.92-0.7-13.38c0.92-0.12,1.85-0.24,2.77-0.36c4.07,0.5,8.15,1,12.22,1.5
		c-3.25-0.37-4.56,1-5.37,4.31c-2.23,9.13-5.03,18.11-7.6,27.15C783.48,480.35,783.04,473.94,782.6,467.53z"/>
	<path class="st20" d="M667.67,818.49c1.85-2.85,3.7-5.71,5.56-8.56c0.25,0.01,0.5,0.02,0.75,0.04c0.27,0.3,0.53,0.61,0.8,0.91
		c0.69,0.11,1.38,0.23,2.07,0.35c4.99,1.2,6.23,4.77,5.87,9.34c-3.01,1.73-6.05,4.78-9.04,4.73
		C671.64,825.27,669.67,820.91,667.67,818.49z"/>
	<path class="st21" d="M169.91,409.99c2.75,0.64,5.49,1.29,8.24,1.93c-6.53,5.9-6.31,8.42,1.5,11.01c4.58,1.52,9.46,2.1,14.21,3.1
		c0.49,1.37,0.97,2.73,1.46,4.1c-6.98-1.54-14.21-2.41-20.88-4.82c-6.3-2.28-7.25-6.86-4.3-12.95
		C170.44,411.75,170.01,410.79,169.91,409.99z"/>
	<path class="st22" d="M579.09,811.33c1.92,2.39,3.85,4.77,5.77,7.16c-2.06,2.25-3.86,5.88-6.27,6.35c-2.11,0.42-4.92-2.7-7.43-4.26
		c-0.79-5.24,1.67-8.15,6.64-9.25C578.24,811.33,578.67,811.33,579.09,811.33z"/>
	<path class="st23" d="M726.1,700.02c-4.75-0.93-5.68,1.1-5.63,5.68c0.26,25.31,0.18,50.63,0.01,75.95
		c-0.01,1.92-1.24,4.17-2.57,5.67c-9.28,10.46-18.73,20.76-28.13,31.11c-1.44,1.79-2.87,3.59-4.31,5.38
		c-0.21-0.12-0.41-0.25-0.62-0.37c0.98-1.64,1.97-3.29,2.96-4.93c10.13-10.97,20.28-21.92,30.34-32.94c0.78-0.86,1.38-2.25,1.38-3.4
		c0.05-27.55,0.01-55.1-0.01-82.64C721.72,699.69,723.91,699.86,726.1,700.02z"/>
	<path class="st24" d="M965.98,818.48c0.31-9.16,0.32-9.17,8.38-5.28c2,0.97,3.96,2.01,5.94,3.01
		C975.52,816.97,970.75,817.73,965.98,818.48z"/>
	<path class="st25" d="M843.8,396.89l-0.33,0c0,0-0.33,0-0.33,0c-5.71-6.02-8.95-13.17-9.91-20.4c3.99,5.48,8.39,11.53,12.8,17.58
		c0,0.22,0.01,0.44,0.02,0.66C845.29,395.44,844.55,396.17,843.8,396.89z"/>
	<path class="st26" d="M325.06,819.32c1.7-0.1,3.41-0.2,5.11-0.3c-0.14,2.03-0.28,4.06-0.42,6.09
		C324.69,826.02,324.97,822.59,325.06,819.32z"/>
	<path class="st27" d="M180.13,394.12c-0.04,0.79,0.19,2.11-0.16,2.29c-4.73,2.41-2.85,4.26,0.4,6.06
		c-2.15-0.66-4.29-1.32-6.44-1.98c0.14-1.16,0.61-2.43,0.31-3.46c-0.23-0.8-1.43-1.32-2.2-1.97c1.17-0.35,2.31-0.88,3.5-1
		C177.06,393.9,178.6,394.08,180.13,394.12z"/>
	<path class="st28" d="M470.01,818.52c-0.59-4.22,0.92-4.93,4.37-2.7c1.55,1,3.23,1.79,4.86,2.67
		C476.16,818.49,473.08,818.5,470.01,818.52z"/>
	<path class="st27" d="M185.26,398.31c-0.91-1.42-1.81-2.84-2.72-4.26c2.58-0.01,5.17-0.01,7.75-0.02c-0.43,0.97-0.86,1.93-1.3,2.9
		c-0.25,0.44-0.49,0.89-0.74,1.33C187.26,398.27,186.26,398.29,185.26,398.31z"/>
	<path class="st29" d="M196.1,391.7c3.51,1.36,7.03,2.72,10.54,4.08c-0.13,0.23-0.27,0.46-0.4,0.69c-3.87-1.22-7.74-2.44-11.62-3.66
		C195.11,392.45,195.6,392.08,196.1,391.7z"/>
	<path class="st30" d="M753.23,436.15c0.25,1.65,0.51,3.29,0.76,4.94C753.74,439.44,753.48,437.8,753.23,436.15z"/>
	<path class="st18" d="M294.3,431.71c0.04-0.68,0.08-1.35,0.12-2.03C294.38,430.36,294.34,431.04,294.3,431.71z"/>
	<path class="st1" d="M337.95,785.64c-15.93,0.99-31.86,1.98-47.8,2.97c-11.36-0.12-11.82,0.04-15.63-10.93
		c-11.49-33.05-24.39-65.76-33.16-99.54c-5.15-19.86-3.52-41.48-4.87-62.31c-0.2-3.12-0.03-6.27-0.03-10.94
		c-12.96,15.53-24.89,29.8-36.75,44.13c-0.51,0.61-0.55,1.75-0.53,2.63c1.36,44.64,2.77,89.28,4.07,133.93
		c0.03,1.01-1.02,2.05-1.57,3.08c-20.69,0-41.37,0-62.05,0c-4.12-0.14-8.25-0.28-12.37-0.42c0.31-4.12,0.45-8.26,0.95-12.35
		c5.43-44.03,10.31-88.15,16.84-132.02c1.47-9.85,7.51-19.74,13.6-28.03c15.18-20.64,31.61-40.37,47.54-60.46
		c4.09-0.09,8.18-0.31,12.27-0.26c21.09,0.28,42.17,0.77,63.25,0.87c4.89,0.02,8.8,0.1,8.35,6.46c0.78,17.77,1.55,35.54,2.33,53.31
		c1.74,9.75-4.54,17.08-7.72,25.31c-4.21,10.88-7.93,21.96-3.48,33.43c3.76,9.7,8.49,19.05,13.29,28.3
		C308.85,730.48,323.45,758.03,337.95,785.64z M160.59,785.32c0.26,0.01,0.52,0.01,0.78,0.02c0.1-0.74,0.3-1.48,0.28-2.21
		c-0.94-26.33-2.27-52.65-2.72-78.98c-0.3-17.84-1.49-35.84,5.14-53.16c12.47-32.56,34.52-58.15,58.95-82.06
		c4.09-4,8.39-7.78,12.59-11.66c-1.43,0.01-2.4,0.58-3.22,1.32c-19,17.01-36.44,35.45-50.83,56.58
		c-13.06,19.17-23.72,39.53-23.84,63.37c-0.15,27.9,0.7,55.8,1.31,83.7C159.19,769.94,160.05,777.63,160.59,785.32z"/>
	<path class="st1" d="M392.07,781.5c-6.85-0.01-13.69-0.02-20.54-0.03c-3.8-0.02-7.6-0.03-11.4-0.05
		c-3.84-6.96-7.79-13.86-11.48-20.9c-3.95-7.54-7.64-15.21-11.45-22.82c4.18-28.4,8.37-56.8,12.55-85.21
		c3.23-21.95,6.44-43.9,9.65-65.84c18.8-2.03,37.6-4.13,56.42-6.06c7.82-0.8,15.67-1.24,23.5-1.85c17.6,14.52,35.2,29.04,52.8,43.55
		c3.33,3.36,6.66,6.72,10,10.08c1.46,4.25,2.91,8.5,4.37,12.74c0.17,0.3,0.34,0.6,0.51,0.9c0.28,3.55,0.63,7.09,0.84,10.64
		c0.67,11.08,1.29,22.17,1.94,33.25c0.28,30.89,0.6,61.77,0.7,92.65c0,0.84-2.25,1.69-3.45,2.54c-3.56,0.23-7.12,0.45-10.68,0.68
		c-1.65,0.21-3.31,0.42-4.96,0.64c0,0,0.01,0,0.01,0c-8.8,0.45-17.59,0.91-26.39,1.36c1.66-15.95,3.9-31.86,4.83-47.85
		c1.28-21.86,1.87-43.77,2.17-65.67c0.15-10.78,0.07-21.83-7-31.13c-0.72-0.24-1.43-0.47-2.15-0.71c-1.07-1.22-1.92-2.82-3.26-3.59
		c-9.7-5.6-19.31-11.41-29.33-16.39c-7.45-3.7-15.47-6.24-23.24-9.3c-0.59,0.84-1.63,1.64-1.69,2.52
		c-3.01,41.84-5.81,83.7-8.94,125.54C395.4,754.65,393.54,768.06,392.07,781.5z"/>
	<path class="st3" d="M439.33,578.74c-7.84,0.61-15.69,1.05-23.5,1.85c-18.82,1.93-37.61,4.03-56.42,6.06
		c-0.25-0.71-0.77-1.45-0.7-2.12c1.33-11.69,2.74-23.38,4.13-35.07c0.78,1.08,1.33,2.56,2.38,3.18c7.15,4.19,14.38,8.25,21.64,12.24
		c2.38,1.31,4.92,2.35,7.44,3.38c2.63,1.08,5.29,2.1,7.99,2.96c2.45,0.78,4.99,1.32,5.7,1.51c-13.93-9.3-29.12-19.46-44.32-29.61
		c-4.44-7.77-7.88-15.73-7.17-25.07c0.88-11.63,8.17-22.7,17.09-25.15c5.03,2.34,10.04,4.71,15.09,7c2.09,0.95,4.26,1.72,6.4,2.57
		c4.64,3.19,9.29,6.37,13.93,9.56c0.32-0.45,0.65-0.9,0.97-1.36c-4.03-3.4-8.07-6.81-12.1-10.21c-0.49-0.95-0.87-2-1.5-2.85
		c-1.85-2.48-3.8-4.89-5.71-7.33c3.08,0.14,6.23-0.1,9.22,0.47c15.62,3.01,23.21,14.56,28.97,27.86c1.27,2.93,1.92,3.54,4.15,0.61
		c7.17-9.45,14.6-18.69,21.93-28.01c5.99,8.49,11.98,16.98,17.97,25.47c-1.86,2.73-3.71,5.45-5.39,7.91
		c1.36,0.24,2.56,0.45,3.75,0.66c1.4,9.76,2.79,19.51,4.19,29.27c-1.63,1.1-3.14,2.44-4.9,3.27c-10.1,4.73-20.26,9.34-30.4,13.99
		c0-5.34,0-10.68,0-14.49c-3.57,3.79-8.69,9.22-13.82,14.65c0.13,0.15,0.26,0.3,0.4,0.45c3.83-2.87,7.66-5.75,11.88-8.91
		c0.24,5.11,0.47,9.81,0.69,14.51C439.31,578.23,439.32,578.49,439.33,578.74z M408.66,535.19c-0.17,0.23-0.34,0.47-0.51,0.7
		c1.52,1.19,3.46,2.11,4.44,3.65c0.85,1.34,0.81,3.38,0.82,5.1c0,1.8-0.41,3.6-0.7,5.86c1.3-3.64,3.75-7.04,3.08-9.64
		C415.18,538.52,411.17,537.05,408.66,535.19z"/>
	<path class="st3" d="M651.25,793.61c-18.7,4.57-37.02,3.24-55.16-3.09c-1.72-0.6-5.15,0.31-6.15,1.7
		c-3.72,5.15-6.76,10.79-10.05,16.25c-0.27-0.29-0.54-0.58-0.82-0.87c3.42-5.66,6.93-11.28,10.17-17.05
		c0.46-0.83,0.04-2.97-0.7-3.52c-6.26-4.69-13.41-8.4-18.93-13.8c-22.03-21.52-29.45-47.76-23.65-77.92
		c0.27-1.42-0.66-3.08-1.03-4.63c1.06-1.12,2.62-2.05,3.1-3.38c5.12-14.33,13.75-26.02,26.59-34.16c4.37-2.77,6.99-5.56,6.08-10.83
		c-0.27,6.53,2.39,5.74,7.39,3.98c7.53-2.64,15.58-3.76,23.4-5.58c1.34-0.31,2.63-0.88,3.94-1.33c1.07,0.27,2.13,0.7,3.21,0.78
		c7.05,0.54,14.1,1.01,21.15,1.5c1.32,0.47,2.66,0.91,3.97,1.42c18.04,6.95,35.37,12.86,34.52,36.05
		c-0.25,6.9,2.78,10.75,9.58,12.63c2.49,0.69,5.79,3.91,6.05,6.28c1.24,11.24,2.49,22.62,1.98,33.87
		c-0.64,13.92-5.39,26.87-13.68,38.36c-7.87,10.91-18.43,17.94-31,22.24c-0.4,0.14-0.68,0.61-1.02,0.93
		C650.55,793.49,650.9,793.55,651.25,793.61z M617.22,666.6c-17.04,0.62-34.97,6.79-46.33,25.17c-19.27,31.2-3.37,75.12,31.65,88.3
		c23.79,8.95,49.76,3.5,63.26-13.61c10.6-13.44,12.88-29.17,11.94-45.75C675.94,688.95,652.43,666.55,617.22,666.6z"/>
	<path class="st31" d="M499.11,453.36c-6.04-8.11-3.31-15.26,6.54-16.01c14.57-1.11,27.53,3.45,38.19,13.41
		c8.38,7.83,8.66,17.77,0.4,26.54c-11.44,12.15-14.32,25.5-9.11,41.32c3.85,11.66,1.93,16.9-6,22.03
		c-18.1-2.23-30.43-11.88-37.1-28.82c-0.19-0.06-0.38-0.08-0.58-0.07c-0.03-0.26-0.05-0.52-0.08-0.78
		c-2.84-2.58-5.68-5.16-8.53-7.74c4.06-4.35,8.11-8.71,12.17-13.06c2.43,3.26,4.86,6.52,7.95,10.67c-2.4-7.57-4.46-14.06-6.52-20.54
		c0,0,0.01,0.01,0.01,0.01c0.02-5.68,0.04-11.36,0.05-17.05c0.97-2.84,1.94-5.68,2.91-8.53c14.43-4.13,27.18,2.08,40.23,6.5
		C526.85,454.87,513.74,450.19,499.11,453.36z M526.51,444.47c0.12-0.57,0.25-1.15,0.37-1.72c-7.01-1.32-14.02-2.65-21.03-3.97
		c-0.09,0.47-0.18,0.94-0.26,1.42C512.56,441.62,519.53,443.05,526.51,444.47z M513.15,522.62c0.35-0.15,0.71-0.3,1.06-0.45
		c-3.27-7.09-6.55-14.17-9.82-21.26c-0.33,0.15-0.66,0.3-1,0.45C506.65,508.45,509.9,515.53,513.15,522.62z"/>
	<path class="st32" d="M337.21,737.7c3.8,7.61,7.5,15.28,11.45,22.82c3.69,7.04,7.64,13.94,11.48,20.9
		c-1.51,1.02-2.9,2.49-4.56,2.96c-2.21,0.61-4.76,0.05-6.92,0.74c-1.42,0.45-2.41,2.24-3.59,3.43c-2.37-0.97-4.74-1.94-7.11-2.91
		c-14.5-27.61-29.1-55.16-43.46-82.84c-4.8-9.25-9.52-18.61-13.29-28.3c-4.45-11.47-0.73-22.55,3.48-33.43
		c3.19-8.24,9.47-15.56,7.72-25.31c0.84,14.19,1.65,28.38,2.57,42.57c0.1,1.59,0.53,3.3,1.28,4.7
		c12.94,24.14,25.94,48.25,38.96,72.35C335.7,736.24,336.54,736.92,337.21,737.7z"/>
	<path class="st5" d="M580.72,642.31c0.91,5.28-1.71,8.06-6.08,10.83c-12.84,8.14-21.47,19.83-26.59,34.16
		c-0.47,1.33-2.04,2.26-3.1,3.38c-0.47,0.06-0.93,0.11-1.39,0.17c-0.53,0.01-1.06,0.01-1.59,0.02c-2.33-0.01-4.65-0.01-6.98-0.02
		c-1.7-0.23-3.41-0.46-5.11-0.68c-5.57-0.85-11.12-1.84-16.71-2.43c-1.04-0.11-2.25,1.4-3.38,2.17
		c-0.64-11.08-1.27-22.17-1.94-33.25c-0.21-3.55-0.56-7.09-0.84-10.64c15.03,0.21,30.07,0.8,45.09,0.46
		c6.87-0.16,13.7-2.16,18.2-2.93c-12.11,0.86-26.41,2.21-40.74,2.77c-7.66,0.3-15.37-0.76-23.05-1.2c-1.46-4.25-2.91-8.5-4.37-12.74
		c15.06,0.93,30.14,2.81,45.17,2.46c10.86-0.25,21.65-3.48,32.48-5.38C580.09,633.74,580.4,638.02,580.72,642.31z"/>
	<path class="st4" d="M371.84,483.59c-9.82,1.61-24.94-9.59-26.22-19.41c-0.72-5.52,5.94-7.76,6.25-10.62
		c0.48-4.41-0.58-8.54,4.03-11.07c1.77-0.97,4.39-2.16,5.88-1.52c4.39,1.87,5.66,0.14,7.91-3.49c1.86-2.99,6.5-6.27,9.57-5.97
		c3.79,0.37,8.62,3.59,10.36,6.95c1.22,2.37-1.73,7.12-3.28,10.6c-0.67,1.5-2.5,2.48-3.79,3.7c-3.86,2.53-7.83,4.92-11.53,7.67
		c-0.97,0.72-1.82,2.77-1.49,3.85c0.85,2.85,1.05,4.21-2.75,4.01c-1.62-0.08-3.33,1.7-4.99,2.63c0.93,1.53,1.64,3.28,2.87,4.51
		c1.03,1.03,2.62,1.77,4.07,2.04C372.62,478.19,373.08,480.4,371.84,483.59z"/>
	<path class="st3" d="M579.77,629.46c-10.82,1.9-21.62,5.12-32.48,5.38c-15.03,0.35-30.11-1.54-45.17-2.46
		c-3.33-3.36-6.66-6.72-9.99-10.08c15.52-1.38,31.03-3.76,46.56-3.81c11.19-0.04,22.47,2.7,33.55,4.94
		C575.04,623.99,577.28,627.37,579.77,629.46z"/>
	<path class="st9" d="M371.84,483.59c1.23-3.19,0.78-5.4-3.12-6.12c-1.45-0.27-3.04-1.01-4.07-2.04c-1.23-1.22-1.94-2.98-2.87-4.51
		c1.67-0.93,3.38-2.71,4.99-2.63c3.8,0.19,3.6-1.17,2.75-4.01c-0.32-1.07,0.52-3.12,1.49-3.85c3.7-2.75,7.66-5.15,11.53-7.67
		c1.99,1.47,3.98,2.93,5.96,4.4c3.79,2.81,7.58,5.62,11.37,8.42c-0.36,1.39-0.73,2.79-1.1,4.18c-1.45,3.45-2.39,9.42-4.46,9.85
		c-5.33,1.1-6.24,3.25-5.06,7.73c-5.3,0.57-10.6,1.15-15.9,1.72C372.86,487.25,372.35,485.42,371.84,483.59z"/>
	<path class="st9" d="M495.01,490.16c-4.06,4.35-8.11,8.71-12.17,13.06c-1.71,2.86-3.42,5.71-5.12,8.57
		c-2.54-11.6-8.13-21.3-17.77-28.48c-0.27-0.68-0.53-1.36-0.8-2.04c2.41-1.98,4.82-3.96,7.22-5.94c3.14-3.32,6.28-6.63,9.42-9.95
		c0.65-0.16,1.31-0.32,1.96-0.48c1.5,1.19,3.11,2.26,4.47,3.58c2.5,2.43,4.87,4.99,7.25,7.53c0.95,1.01,1.78,2.13,2.66,3.21
		c0.71,0.86,1.42,1.72,2.12,2.59C494.51,484.59,494.76,487.38,495.01,490.16z"/>
	<path class="st12" d="M475.79,465.39c-3.14,3.32-6.28,6.63-9.42,9.95c-1.04-1.4-2.11-2.77-3.11-4.2
		c-5.46-7.83-10.72-15.81-16.51-23.38c-1.13-1.48-5.32-2.66-6.4-1.81c-7.96,6.23-15.48,13.01-23.14,19.62
		c-1.38,0.58-2.76,1.16-4.14,1.74c0.19-2.38,0.39-4.76,0.58-7.14c8.67-8.2,17.19-16.58,26.09-24.52c4.12-3.68,8.16-1.1,11.75,1.76
		c2.76,2.66,7,4.89,7.91,8.07c1.32,4.64,3.73,6.3,7.81,6.98c0,0-0.01-0.01-0.01-0.01c1.78,4.01,0.94,9.87,7.54,10.52
		C475.17,463,475.45,464.54,475.79,465.39z"/>
	<path class="st33" d="M639.8,641.66c-7.05-0.49-14.1-0.96-21.15-1.5c-1.08-0.08-2.14-0.51-3.21-0.78c1.72-2.58,3.44-5.16,5.16-7.74
		c0.71-0.06,1.42-0.13,2.13-0.19c5.92,0.33,11.85,0.65,17.77,0.98c1.91,0.16,3.82,0.31,5.73,0.47c0.99-0.63,1.98-1.26,2.97-1.89
		c0.9,0.71,1.76,1.95,2.72,2.04c4.48,0.42,8.99,0.52,13.49,0.74c2.9,0.28,5.8,0.57,8.69,0.85c0.39,4.79,0.84,9.57,1.15,14.36
		c0.08,1.2-0.29,2.43-0.45,3.65c-1.07-0.44-2.11-0.96-3.2-1.29C661.01,648.1,650.41,644.89,639.8,641.66z"/>
	<path class="st34" d="M598.3,573.79c-4.72,5.46-9.44,10.91-14.16,16.37c-5.37-4.59-10.73-9.18-16.1-13.78
		c-0.01-0.15,0.02-0.3,0.06-0.45c2.3,0.54,4.59,1.15,6.92,1.44c0.15,0.02,0.6-2.45,0.92-3.76c2.02-0.33,3.3-1.67,4.58-3.01
		c0.41-0.43,0.75-1.21,1.2-1.28c3.67-0.61,7.35-1.09,10.59-1.54c0.12,0.05-0.37-0.29-0.91-0.39c-2.97-0.58-5.96-1.1-8.94-1.64
		c2.48-1.26,4.97-2.52,7.45-3.78C592.72,565.91,595.51,569.85,598.3,573.79z"/>
	<path class="st35" d="M491.37,510.97c0.03,0.26,0.05,0.52,0.08,0.78c-1.41,4.75-2.83,9.49-4.03,13.52
		c-0.24,0.2,0.37-0.31,0.97-0.81c4.54,5,9.07,10,13.61,15c-6.41,3.59-12.81,7.18-19.22,10.77c1.32-10.29,0.98-20.39-3.66-29.95
		c0.52-1.38,1.03-2.76,1.55-4.13C484.23,514.42,487.8,512.69,491.37,510.97z"/>
	<path class="st36" d="M502,539.46c-4.54-5-9.07-10-13.61-15c1.21-4.22,2.42-8.43,3.63-12.65c6.67,16.95,19,26.6,37.1,28.82
		C520.28,547.49,512.08,547.14,502,539.46z"/>
	<path class="st37" d="M531.52,426.48c17.39-0.54,37.65,16.8,35.72,32.19c-0.98,7.85-6.73,15.22-10.87,22.5
		c-2.3,4.03-5.74,7.4-9.25,11.79c0.31-1.77,0.19-3.23,0.8-4.26c3.35-5.73,6.85-11.37,10.35-17.02c7.69-12.4,5.59-24.29-6.32-32.67
		C545.53,434.49,538.57,430.76,531.52,426.48z"/>
	<path class="st38" d="M479.12,520.28c4.64,9.57,4.98,19.66,3.66,29.95c-2.44,1.43-4.88,2.85-7.32,4.28
		c-1.4-9.76-2.79-19.51-4.19-29.27C473.89,523.59,476.5,521.93,479.12,520.28z"/>
	<path class="st39" d="M565.34,573.69c-2.06-1.93-1.07-8.44,1.11-10.33c1.95-1.68,5.04-4.31,4.71-5.94
		c-1.15-5.78,3.14-3.96,5.53-4.65c0.68-0.2,1.66,0.66,2.5,1.03c2.07,1.95,4.27,3.78,6.09,5.93c0.38,0.45-0.61,2.08-0.98,3.16
		c-2.76-0.92-5.53-1.84-7.93-2.64c1.79,2.19,3.88,4.75,5.97,7.31c-0.25,0.37-0.5,0.75-0.76,1.12c-3.54-1.69-7.07-3.38-10.61-5.08
		c2.37,2.45,5.02,4.35,7.6,6.35c0.49,0.38,0.66,1.16,0.98,1.76c-0.73,0.24-1.59,0.87-2.16,0.67c-3.15-1.1-6.24-2.39-10.44-4.05
		c2.25,1.75,3.77,2.66,4.93,3.91c1.1,1.2,1.8,2.75,2.68,4.15c-1.69-0.35-3.42-0.6-5.07-1.08
		C568.07,574.91,566.72,574.24,565.34,573.69z"/>
	<path class="st40" d="M363.67,543.11c15.2,10.15,30.4,20.31,44.32,29.61c-0.71-0.18-3.25-0.72-5.7-1.51
		c-2.7-0.86-5.37-1.88-7.99-2.96c-2.52-1.03-5.06-2.07-7.44-3.38c-7.27-3.99-14.49-8.05-21.64-12.24c-1.05-0.62-1.6-2.1-2.38-3.18
		C363.12,547.35,363.39,545.23,363.67,543.11z"/>
	<path class="st41" d="M373.37,489.07c5.3-0.57,10.6-1.15,15.9-1.72c0.47,0.98,0.94,1.95,1.41,2.93c1.91,2.44,3.86,4.85,5.71,7.33
		c0.63,0.85,1.01,1.89,1.5,2.85c-3.74-2.95-7.48-5.91-11.22-8.86c-0.43,0.41-0.86,0.82-1.3,1.23c3.24,3.21,6.48,6.43,9.72,9.64
		c-2.14-0.85-4.31-1.62-6.4-2.57c-5.05-2.29-10.06-4.66-15.09-7C373.52,491.62,373.45,490.35,373.37,489.07z"/>
	<path class="st42" d="M565.34,573.69c1.38,0.55,2.73,1.22,4.15,1.63c1.66,0.48,3.38,0.73,5.07,1.08c-0.88-1.4-1.58-2.95-2.68-4.15
		c-1.15-1.25-2.68-2.16-4.93-3.91c4.21,1.66,7.29,2.96,10.44,4.05c0.57,0.2,1.43-0.43,2.16-0.67c-0.32-0.6-0.49-1.38-0.98-1.76
		c-2.58-2-5.23-3.91-7.6-6.35c3.54,1.69,7.07,3.38,10.61,5.08c0.25-0.37,0.5-0.75,0.76-1.12c-2.09-2.56-4.18-5.12-5.97-7.31
		c2.4,0.8,5.16,1.72,7.93,2.64c0.36-1.08,1.36-2.71,0.98-3.16c-1.82-2.15-4.02-3.98-6.09-5.93c1.36,0.75,2.73,1.5,4.09,2.25
		c0.79,0.7,1.57,1.4,2.36,2.09c1.43,1.27,2.86,2.55,4.3,3.82c-2.48,1.26-4.97,2.52-7.45,3.78c2.98,0.54,5.97,1.06,8.94,1.64
		c0.53,0.1,1.02,0.44,0.91,0.39c-3.23,0.45-6.92,0.93-10.59,1.54c-0.46,0.08-0.79,0.85-1.2,1.28c-1.27,1.35-2.55,2.68-4.58,3.01
		c-0.31,1.31-0.77,3.77-0.92,3.76c-2.33-0.29-4.62-0.9-6.92-1.44c-0.79-0.59-1.59-1.18-2.38-1.77
		C565.54,574.05,565.41,573.9,565.34,573.69z"/>
	<path class="st43" d="M398.79,469.77c0.37-1.4,0.73-2.79,1.1-4.18c4.29-1.26,8.59-2.52,12.89-3.78c-0.71,2.26-1.41,4.53-2.12,6.79
		C406.7,468.99,402.74,469.38,398.79,469.77z"/>
	<path class="st44" d="M565.73,574.17c0.79,0.59,1.59,1.18,2.38,1.77c-0.05,0.15-0.07,0.3-0.06,0.45
		c-3.04,3.86-6.01,7.78-9.17,11.54c-0.72,0.86-2.17,1.68-3.17,1.56c-0.99-0.12-2.39-1.34-2.59-2.29c-0.21-0.96,0.56-2.49,1.38-3.25
		C558.14,580.58,561.97,577.41,565.73,574.17z"/>
	<path class="st45" d="M467.21,452.45c-4.08-0.69-6.48-2.35-7.81-6.98c-0.91-3.18-5.16-5.41-7.91-8.07
		c4.22,2.5,8.77,4.59,12.51,7.67C465.85,446.59,466.19,449.93,467.21,452.45z"/>
	<path class="st46" d="M519.54,613.81c11.19-11.01,36.99-10.56,50.81,0.87C553.54,606.06,536.66,602.35,519.54,613.81z"/>
	<path class="st47" d="M439.31,577.98c-0.22-4.7-0.45-9.4-0.69-14.51c-4.22,3.17-8.05,6.04-11.88,8.91c-0.13-0.15-0.26-0.3-0.4-0.45
		c5.12-5.43,10.24-10.86,13.82-14.65c0,3.8,0,9.14,0,14.49C439.87,573.84,439.59,575.91,439.31,577.98z"/>
	<path class="st45" d="M475.79,465.39c-0.34-0.84-0.62-2.38-1.04-2.43c-6.6-0.65-5.76-6.52-7.54-10.52
		c6.59,1.55,8.49,7.08,10.55,12.46C477.1,465.06,476.44,465.23,475.79,465.39z"/>
	<path class="st48" d="M585.63,558.15c-0.78-0.7-1.57-1.4-2.36-2.09c3.42-3.43,6.78-6.94,10.32-10.24c0.93-0.87,2.44-1.12,3.68-1.65
		c-0.53,1.16-0.81,2.53-1.62,3.43C592.39,551.2,588.98,554.65,585.63,558.15z"/>
	<path class="st49" d="M495.01,490.16c-0.25-2.78-0.5-5.57-0.75-8.35c0.73-0.51,1.45-1.01,2.18-1.52
		c2.06,6.49,4.12,12.97,6.52,20.54C499.87,496.69,497.44,493.43,495.01,490.16z"/>
	<path class="st50" d="M499.11,453.36c14.64-3.17,27.74,1.51,40.52,7.87c-13.05-4.42-25.8-10.63-40.23-6.5
		C499.3,454.27,499.21,453.82,499.11,453.36z"/>
	<path class="st46" d="M544.84,602.71c7.43-3.37,20.86,0.8,27.43,9.46C563.26,604.69,554.92,600.87,544.84,602.71z"/>
	<path class="st49" d="M496.49,463.26c-0.02,5.68-0.04,11.36-0.05,17.05C496.46,474.62,496.48,468.94,496.49,463.26z"/>
	<path class="st51" d="M622.74,631.44c-0.71,0.06-1.42,0.13-2.13,0.19c0.72-4.04,1.45-8.09,2.17-12.13c0.19-0.08,0.34-0.2,0.47-0.35
		c0.08,0.7,0.15,1.39,0.23,2.09C623.23,624.65,622.99,628.05,622.74,631.44z"/>
	<path class="st52" d="M410.65,468.59c0.71-2.26,1.41-4.53,2.12-6.79c0.29-0.55,0.59-1.1,0.88-1.64c-0.19,2.38-0.39,4.76-0.58,7.14
		C412.26,467.73,411.46,468.16,410.65,468.59z"/>
	<path class="st7" d="M921.05,795.05c-3.22,0.42-6.44,1.06-9.67,1.1c-0.89,0.01-1.8-1.79-2.7-2.76c0.07-1.06,0.07-2.14,0.22-3.19
		c4.15-29.75,8.32-59.49,12.4-89.25c0.14-1.03-0.71-3.16-1.12-3.16c-6.97-0.11-13.95-0.11-20.9,0.27c-1.1,0.06-2.69,1.93-3.01,3.23
		c-0.91,3.65-2.02,7.51-1.64,11.15c0.32,3.13-3.6,8.45,3.42,9.43c0.45,0.06,0.89,2.04,0.83,3.1c-0.03,0.58-1.08,1.54-1.73,1.59
		c-5.91,0.52-11.84,0.93-17.77,1.21c-0.66,0.03-1.85-0.8-1.96-1.38c-0.2-1.05,0.2-3.19,0.42-3.2c5.27-0.21,3.23-4.15,3.02-6.5
		c-0.37-4.33-1.16-8.7-2.45-12.84c-0.5-1.6-2.94-3.83-4.32-3.7c-6.58,0.59-13.11,1.82-19.62,3.04c-0.54,0.1-1.33,2.02-1.08,2.8
		c9.66,30.66,19.43,61.3,29.19,91.93c-9.73-0.07-19.85,1.54-29.08-0.62c-11.68-2.74-22.64-8.56-33.91-13.06
		c-18.16-13.51-25.44-32.63-27.94-54.21c-0.19-1.44-0.37-2.88-0.56-4.33c0.03-0.22,0.02-0.44-0.04-0.66
		c1.7-17.55,3.39-35.1,5.09-52.65c1.4-4.03,2.8-8.07,4.2-12.1c4.83-3.46,9.06-2.87,13.31,1.33c7.85,7.76,14.46,6.25,15.88-4.74
		c1.69-13.02,1.96-26.37,1.26-39.49c-0.53-9.97-6.26-12.24-14.62-6.68c-5.08,3.38-8.12,1.81-10.75-2.51
		c-7.76-12.76-10.77-26.2-5.25-40.7c16.16-5.13,32.36-10.13,48.42-15.53c2.3-0.77,3.96-3.45,5.92-5.25c4.25-1.2,8.5-2.39,12.75-3.59
		c0.92,11.48,1.84,22.96,2.75,34.44c0.12,2.55,0.25,5.09,0.37,7.64c0.13,1.24,0.27,2.49,0.4,3.73c0.32,5.54,0.53,11.09,1,16.62
		c0.53,6.27,1.29,12.52,1.96,18.78c1.7-0.21,3.4-0.42,5.1-0.64c0.89-0.02,1.79-0.04,2.68-0.05c0.55,0,1.1,0,1.65-0.01
		c0.91-0.2,1.82-0.41,2.74-0.61c0.28-0.03,0.55-0.05,0.83-0.08c0.64-1.14,1.92-2.34,1.83-3.42c-2.07-24.24-4.29-48.48-6.48-72.71
		c-0.05-0.34-0.09-0.68-0.14-1.02c-0.08-0.89-0.15-1.77-0.23-2.66c1.97-0.98,5.42-1.69,5.66-2.98c1.12-6.12,3.45-12.51-0.71-18.48
		c0,0-0.05,0.06-0.05,0.06c0.24-1.3,1.16-3.19,0.62-3.8c-2.62-2.96-5.63-5.58-8.5-8.32c-0.16-2.38-0.32-4.76-0.49-7.14
		c0.44,0.7,0.87,1.41,1.31,2.11c2.55,2.75,5.09,5.49,7.64,8.24c-0.1,0.39-0.42,0.97-0.27,1.14c11.98,14.07,24.82,27.2,43.55,31.77
		c24.13,5.88,31.86,18.49,25.54,42.98c-0.41,1.61-0.9,3.2-1.49,4.75c-2.97,7.91-4.39,8.59-12.15,5.93
		c-9.62-3.29-13.87,1.44-12.22,13.62c1.02,13.6,3.1,26.97,10.06,39c2.63,4.54,6.42,5.26,10.59,1.64c1.64-1.85,3.32-3.65,4.91-5.54
		c4.15-4.94,11.44-4.4,14.13,1.43c8.97,19.47,15.64,39.63,17.51,61.15c0.16,2.18,0.31,4.37,0.47,6.55c0,2.35-0.01,4.69-0.01,7.04
		c-0.85,6.07-1.3,12.24-2.64,18.2c-3.01,13.38-10.22,24.38-20.93,33.68c1.44,0.17,2.23,0.27,3.02,0.36
		c-8.38,4.27-16.77,8.53-25.15,12.8C935.11,791.24,928.08,793.15,921.05,795.05z M842.26,666.4c-0.43-0.02-0.86-0.04-1.3-0.06
		c0-8.19-0.38-16.4,0.17-24.55c0.25-3.7,2.19-7.35,3.74-10.85c0.34-0.77,2.26-0.85,3.46-1.24c-0.03,0.94-0.16,1.9-0.08,2.83
		c0.19,2.33,0.15,4.76,0.87,6.93c0.38,1.15,2.19,2.59,3.29,2.53c1.05-0.05,2.98-2.05,2.83-2.89c-0.6-3.44-0.85-8.42-3.09-9.78
		c-4.23-2.57-9.34-1.42-11.01,4.36c-1.27,4.4-2.26,9.06-2.26,13.6c0.02,12.58,1.07,25.17,0.81,37.74
		c-0.15,7.11-1.86,14.23-3.44,21.22c-0.3,1.33-3.27,2.07-5.01,3.08c0.01-1.33,0.22-2.7,0-4c-0.38-2.28-0.71-4.68-1.71-6.7
		c-0.41-0.83-2.52-0.83-3.85-1.21c-0.61,2.75-1.91,5.59-1.6,8.23c0.2,1.67,2.62,4.08,4.36,4.38c7.16,1.23,10.59-1.22,11.58-9.6
		C841.36,689.15,841.57,677.75,842.26,666.4z M953.4,693.64c-2.28-2.66-4.09-4.77-5.89-6.88c-1.1,2.57-2.27,5.12-3.25,7.74
		c-0.21,0.56,0.26,1.37,0.41,2.06c0.22,1,0.43,2.01,0.64,3.02c-1.45-0.22-3.65,0.07-4.22-0.75c-2.24-3.27-4.97-6.69-5.7-10.41
		c-2.6-13.26-4.16-26.73-6.72-40c-1.45-7.49-3.46-15.01-6.41-22.02c-2.17-5.14-10.8-5.54-12.47-0.88c-1.09,3.04,0.4,7.06,1.03,10.58
		c0.06,0.36,3.21,0.55,3.22,0.48c0.62-3.18,1.13-6.38,1.48-9.6c0.1-0.97-0.28-1.98-0.44-2.98c1.24,0.23,3.15,0.04,3.6,0.76
		c2.15,3.46,4.9,6.98,5.61,10.82c2.39,12.83,3.53,25.89,6.07,38.68c1.57,7.93,4.34,15.72,7.43,23.21c1.97,4.78,6.81,4.41,10.76,2.45
		C950.36,699.03,951.32,696.44,953.4,693.64z M883.06,713.41c-0.65,0.12-1.3,0.24-1.96,0.36c0.53,2.86,1.05,5.71,1.58,8.57
		c0.78-0.15,1.56-0.29,2.35-0.44C884.38,719.07,883.72,716.24,883.06,713.41z M894.39,715.92c-0.6-0.21-1.2-0.41-1.8-0.62
		c-0.79,1.98-1.59,3.95-2.38,5.93c0.8,0.22,2.27,0.68,2.3,0.61C893.23,719.9,893.8,717.91,894.39,715.92z M890.77,720.41
		c-1.95-0.86-2.88-1.43-3.89-1.61c-0.24-0.04-1.17,1.42-0.99,1.79c0.35,0.69,1.23,1.39,1.99,1.5
		C888.47,722.18,889.18,721.38,890.77,720.41z"/>
	<path class="st1" d="M879.57,504.59c-0.44-0.7-0.87-1.41-1.31-2.11c-0.21-1.88-0.5-3.76-0.62-5.64c-0.11-1.69-0.02-3.39-0.02-5.08
		c0.37,0.07,0.74,0.15,1.1,0.22c-0.96-5.05-1.91-10.11-2.87-15.16c-0.82-9.32-1.76-18.64-2.37-27.98c-0.18-2.74,0.6-5.54,0.95-8.32
		c7.86-3.03,15.72-6.05,23.58-9.08c1.49,0.96,4.16,1.78,4.28,2.89c2.57,23.16,4.85,46.36,7.18,69.54c-1.61-0.23-3.22-0.71-4.81-0.64
		C896.3,503.61,887.94,504.12,879.57,504.59z"/>
	<path class="st9" d="M898.01,431.43c-7.86,3.03-15.72,6.05-23.58,9.08c-1.21,0-2.41-0.01-3.62-0.01c-0.7-0.04-1.4-0.07-2.1-0.11
		c-0.42-0.01-0.85-0.02-1.27-0.03c-0.71-0.01-1.43-0.01-2.14-0.02c-0.4-0.03-0.8-0.07-1.21-0.11c-0.72-0.14-1.43-0.28-2.15-0.42
		c-0.35-0.04-0.7-0.07-1.05-0.11c-3.85-0.73-5.41-2.47-4.94-6.9c0.43-3.97-1.16-8.13-1.34-12.23c-0.06-1.49,1.39-3.04,2.15-4.56
		c3.02,0.09,6.39,0.72,6.17-4.08c0.04,0.94-0.24,2.5,0.17,2.71c1.44,0.74,3.11,1.1,4.73,1.4c0.29,0.05,1.14-0.94,1.09-1.37
		c-0.12-1.07-0.36-2.75-1.02-3.02c-1.44-0.58-3.17-0.44-4.78-0.6c-1.42,0.18-2.85,0.35-4.27,0.53c-0.64-0.85-1.14-1.9-1.95-2.52
		c-3.06-2.33-3.19-4.24,0.55-5.85c2.44-0.19,4.89-0.38,7.33-0.56c0,0,0.3,0.02,0.3,0.02c1.08,0.21,2.16,0.43,3.24,0.65
		c0,0,0.22-0.04,0.22-0.04l0.21,0.04c11.17,3.58,17.65,12.51,24.3,21.26C894.75,426.84,896.36,429.15,898.01,431.43z M871.75,414.09
		c-0.57-0.66-1-1.15-1.43-1.64c-0.29,0.4-0.85,0.83-0.8,1.19c0.08,0.57,0.55,1.09,0.86,1.63
		C870.78,414.93,871.18,414.58,871.75,414.09z"/>
	<path class="st3" d="M967.3,776.53c-0.79-0.09-1.58-0.19-3.02-0.36c10.71-9.3,17.92-20.3,20.93-33.68
		c1.34-5.96,1.79-12.13,2.64-18.2c4.2,10.18,8.3,20.42,12.66,30.53c2.11,4.89,4.65,9.61,7.1,14.35c1.3,2.51,2.7,4.82-2.05,4.61
		c-0.44-0.02-0.91,0.86-1.37,1.32c-1.42-0.51-2.87-1.56-4.24-1.46C989.05,774.48,978.18,775.54,967.3,776.53z"/>
	<path class="st53" d="M919.11,504.27c3.62,11.48,13.28,15.53,22.89,19.83c4.29,1.92,8.6,4.13,12.32,6.96
		c12.47,9.46,15.75,22.75,14.78,37.6c-0.12,1.89-0.17,3.81-0.56,5.64c-0.21,0.97-1.08,1.8-1.65,2.69c-0.14-0.95-0.42-1.9-0.39-2.84
		c0.36-12.55-0.13-25.38-9.6-34.58c-6-5.82-14.07-9.87-21.79-13.48c-10.07-4.72-16.74-11.9-16.36-19.92
		C918.78,505.53,918.98,504.9,919.11,504.27z"/>
	<path class="st54" d="M950.83,653.66c-4.18,3.62-7.97,2.9-10.59-1.64c-6.96-12.03-9.04-25.39-10.06-39
		c6.18,12.33,12.35,24.66,18.54,36.99C949.36,651.27,950.13,652.45,950.83,653.66z"/>
	<path class="st55" d="M879.57,504.59c8.36-0.47,16.72-0.99,25.09-1.36c1.59-0.07,3.21,0.41,4.81,0.64
		c0.34,9.36-0.67,10.44-10,10.03c-4.1-0.18-8.18-0.7-12.27-1.07C884.67,510.09,882.12,507.34,879.57,504.59z"/>
	<path class="st56" d="M868.32,403.34c-1.08-0.22-2.16-0.43-3.24-0.65c1.2-1.73,2.41-3.46,3.61-5.19c0.01,0.78,0.01,1.55,0.02,2.33
		C868.58,401,868.45,402.17,868.32,403.34z"/>
	<path class="st57" d="M1013.71,791.99c-4.09,0.85-8.18,1.69-12.28,2.54c-0.07-0.32-0.15-0.63-0.22-0.95
		c3.59-0.75,7.19-1.49,10.78-2.24C1012.56,791.56,1013.13,791.78,1013.71,791.99z"/>
	<path class="st58" d="M1018.73,794.91c-3.41,0.92-6.82,1.83-10.24,2.75c-0.07-0.28-0.13-0.56-0.2-0.84
		c3.16-1.03,6.32-2.07,9.48-3.1C1018.09,794.11,1018.41,794.51,1018.73,794.91z"/>
	<path class="st3" d="M987.85,717.25c-0.16-2.18-0.31-4.37-0.47-6.55C987.54,712.88,987.7,715.07,987.85,717.25z"/>
	<path class="st7" d="M868.32,403.34c0.13-1.17,0.26-2.34,0.39-3.51c0.01,1.17,0.03,2.34,0.04,3.51c0,0-0.22-0.04-0.22-0.04
		L868.32,403.34z"/>
	<path class="st59" d="M260.9,539.63c-4.28-0.62-9.34,0-12.69-2.1c-8.5-5.33-16.24-11.88-24.28-17.95
		c2.06-3.54,4.11-7.08,6.17-10.62c7.78,9.15,15.41,18.43,23.45,27.33C255.21,538.13,258.41,538.56,260.9,539.63z"/>
	<path class="st3" d="M800.18,567.5c-5.53,14.5-2.51,27.94,5.25,40.7c2.63,4.32,5.67,5.89,10.75,2.51
		c8.36-5.56,14.09-3.29,14.62,6.68c0.7,13.12,0.42,26.47-1.26,39.49c-1.42,10.98-8.03,12.5-15.88,4.74
		c-4.25-4.2-8.48-4.79-13.31-1.33c-6.42-19.06-12.73-38.16-19.3-57.17c-3.31-9.59-7.09-19.01-10.66-28.51
		C780.31,572.24,790.24,569.87,800.18,567.5z"/>
	<path class="st60" d="M770.38,574.61c3.57,9.5,7.35,18.93,10.66,28.51c6.57,19.01,12.88,38.11,19.3,57.17
		c-1.4,4.03-2.8,8.07-4.2,12.1c-1.45,0.37-2.9,0.75-4.35,1.13c-0.7-1.15-1.6-2.22-2.05-3.45c-2.07-5.71-4.02-11.46-6.01-17.2
		c-0.23,0.05-0.46,0.1-0.69,0.15c0,1.87,0,3.74,0,5.61c-0.17-1.97,0-4.05-0.58-5.88c-2.48-7.83-5.18-15.58-7.8-23.37
		c-1.43-3.75-2.87-7.5-4.3-11.25c-1.92-5.83-3.83-11.66-5.75-17.49c-0.35-2.1-0.44-4.29-1.11-6.28c-2.13-6.38-4.48-12.7-6.74-19.04
		C761.3,575.08,765.84,574.85,770.38,574.61z"/>
	<path class="st9" d="M867.27,543.13c-4.25,1.2-8.5,2.39-12.75,3.59c-0.38-9.68-0.77-19.36-1.15-29.03c1.78-0.97,3.56-1.93,5.33-2.9
		c2.17-1.28,4.34-2.56,6.5-3.84c0.57-0.29,1.13-0.58,1.7-0.87c0.79-0.22,1.58-0.43,2.37-0.65c0.37-0.05,0.75-0.1,1.12-0.15
		c0.82-0.12,1.65-0.25,2.47-0.37c0.34,0.01,0.68,0.02,1.02,0.04c0.88,0.14,1.77,0.27,2.65,0.41c0.28,0.03,0.56,0.05,0.83,0.08
		c0.46,0.06,0.92,0.12,1.38,0.18c2.87,2.74,5.88,5.36,8.5,8.32c0.54,0.61-0.38,2.5-0.62,3.8c-1.19-0.95-2.38-1.9-3.57-2.85
		c-0.96-0.47-1.92-0.94-2.88-1.42c-1.11-0.28-2.22-0.56-3.33-0.85c-0.04,0.26-0.08,0.52-0.12,0.79c1.16,0,2.33,0,3.49,0
		c0.96,0.47,1.92,0.94,2.88,1.42c1.19,0.95,2.38,1.9,3.57,2.85c4.16,5.98,1.82,12.37,0.71,18.48c-0.24,1.3-3.69,2-5.66,2.98
		c-0.44-0.01-0.88-0.03-1.32-0.04c-0.36-0.14-0.72-0.29-1.08-0.43c-0.86-0.23-1.71-0.46-2.57-0.69c-0.48-0.09-0.96-0.18-1.44-0.27
		c-0.94-0.24-1.88-0.47-2.82-0.71c-0.34,0.07-0.68,0.14-1.02,0.22c-0.66,0.23-1.32,0.47-1.98,0.7
		C868.75,542.32,868.01,542.73,867.27,543.13z M880.24,526c-0.89-0.2-1.78-0.41-2.68-0.61c-0.02,0.19-0.04,0.37-0.06,0.56
		c0.92,0,1.85,0,2.78,0c0.94,0.48,1.87,0.97,2.81,1.45c0.52,0.44,1.04,0.88,0.15,0.13c1.1,0.4,0.45,0.16-0.2-0.07
		C882.11,526.97,881.17,526.48,880.24,526z"/>
	<path class="st6" d="M858.7,514.79c-1.78,0.96-3.56,1.93-5.33,2.89c-6.51,2.06-13.01,4.11-19.52,6.17
		c-0.46-0.24-0.91-0.48-1.37-0.72c-3.86-7.14-7.72-14.28-11.58-21.41c1.14-0.08,2.34-0.43,3.42-0.21
		c12.4,2.45,24.78,4.99,37.16,7.51C860.56,510.94,859.63,512.87,858.7,514.79z"/>
	<path class="st61" d="M861.49,509.02c-12.39-2.52-24.77-5.06-37.17-7.51c-1.08-0.21-2.28,0.13-3.42,0.21
		c-2.56-4.49-5.13-8.97-8.25-14.45c7.6,2.73,14.09,5.47,20.81,7.38c10.22,2.9,20.6,5.21,30.91,7.77c0.04,0.95,0.08,1.91,0.12,2.86
		C863.49,506.53,862.49,507.77,861.49,509.02z"/>
	<path class="st62" d="M782.6,467.53c0.44,6.41,0.88,12.82,1.32,19.22c-0.48,0-0.95,0-1.43,0c-2.67-3.06-5.33-6.12-8-9.18
		c-1.47-4.48-2.79-9.01-4.46-13.41c-0.84-2.21-2.67-4.06-3.39-6.28c-0.57-1.78-0.18-3.89-0.11-5.84c0.01-0.24,0.85-0.72,0.93-0.65
		c1.71,1.43,3.96,2.63,4.94,4.48c3.1,5.89,5.71,12.04,8.52,18.08c0.56-0.21,1.13-0.42,1.69-0.64
		C782.6,471.38,782.6,469.46,782.6,467.53z"/>
	<path class="st63" d="M864.5,505.28c-0.04-0.95-0.08-1.91-0.12-2.86c-0.65-10.71-1.31-21.43-1.96-32.14
		c-0.35-8.07-0.7-16.14-1.07-24.21c-0.1-2.12-0.3-4.23-0.46-6.35c0.35,0.04,0.7,0.07,1.05,0.11c1.65,23.42,3.31,46.84,4.96,70.26
		c-0.57,0.29-1.13,0.58-1.7,0.87C864.97,509.06,864.73,507.17,864.5,505.28z"/>
	<path class="st64" d="M788.85,535.08c-13.14,2.96-13.16,2.96-18.18-9.39c-2.58-6.36-5.1-12.74-7.63-19.12
		c-0.07-0.19,0.02-0.44,0.14-2.03c2.64,6.42,4.83,11.72,7.01,17.03c0.36,0.88,0.67,1.77,1.03,2.65c1.61,3.94,2.23,9.34,5.17,11.37
		c2.45,1.68,7.62-0.61,11.59-1.14C788.27,534.65,788.56,534.86,788.85,535.08z"/>
	<path class="st65" d="M829.18,525.44c-5.36,1.31-10.71,2.63-16.07,3.94c-0.29-0.22-0.59-0.44-0.88-0.66
		c4.98-1.17,9.97-2.35,14.95-3.52C827.85,525.28,828.52,525.36,829.18,525.44z"/>
	<path class="st66" d="M788.85,535.08c-0.29-0.21-0.58-0.43-0.87-0.64c4.37-1.09,8.74-2.18,13.1-3.27c0.29,0.22,0.58,0.44,0.87,0.65
		C797.58,532.91,793.22,533.99,788.85,535.08z"/>
	<path class="st67" d="M801.95,531.82c-0.29-0.22-0.58-0.44-0.87-0.65c3.72-0.82,7.44-1.63,11.16-2.45
		c0.29,0.22,0.59,0.44,0.88,0.66C809.4,530.19,805.67,531.01,801.95,531.82z"/>
	<path class="st68" d="M829.18,525.44c-0.66-0.08-1.33-0.16-1.99-0.24c1.76-0.69,3.53-1.38,5.29-2.07c0.46,0.24,0.91,0.48,1.37,0.72
		C832.29,524.38,830.74,524.91,829.18,525.44z"/>
	<path class="st32" d="M407.04,613.12c7.77,3.06,15.79,5.6,23.24,9.3c10.02,4.98,19.63,10.79,29.33,16.39
		c1.33,0.77,2.18,2.37,3.26,3.59c-0.97,0.76-1.94,1.51-4.35,3.39c3.35-1.38,4.92-2.03,6.5-2.68c7.07,9.3,7.14,20.35,7,31.13
		c-0.3,21.9-0.88,43.81-2.17,65.67c-0.94,15.99-3.18,31.91-4.83,47.85c-4.45,0.26-8.91,0.41-13.34,0.86
		c-1.02,0.1-1.94,1.22-2.9,1.87c-5.16-6.13-1.65-13.06-1.27-19.43c2.25-38.32,5.06-76.61,7.69-114.9c0.09-1.3,0.35-2.58,0.54-3.87
		c1.22-2.07,2.45-4.13,3.67-6.2c-0.17-0.1-0.34-0.19-0.51-0.29c-1.52,1.92-3.03,3.83-4.55,5.75
		C438.57,638.75,422.81,625.94,407.04,613.12z"/>
	<path class="st69" d="M454.34,651.56c1.52-1.92,3.03-3.84,4.55-5.75c0.17,0.1,0.34,0.19,0.51,0.29c-1.22,2.06-2.45,4.13-3.67,6.2
		C455.26,652.05,454.8,651.81,454.34,651.56z"/>
	<path class="st70" d="M226.22,429.01c2.57-0.66,5.13-1.31,7.7-1.97c-0.14,5.18-0.27,10.37-0.41,15.56c0,0-0.09-0.04-0.09-0.04
		C231.02,438.04,228.62,433.52,226.22,429.01z"/>
	<path class="st71" d="M233.72,421.23c-2.15,1.13-4.31,2.27-6.46,3.4c0.06-0.59,0.01-1.22,0.2-1.77c0.77-2.25,1.61-4.47,2.42-6.7
		C231.16,417.85,232.44,419.54,233.72,421.23z"/>
	<path class="st5" d="M774.66,629.37c2.62,7.78,5.32,15.54,7.8,23.37c0.58,1.84,0.41,3.92,0.58,5.89
		c-0.17,8.51-0.19,17.03-0.64,25.53c-0.09,1.69-1.4,3.94-2.83,4.83c-11.49,7.17-24.11,10.79-37.66,11.19
		c-4.81,0-9.61-0.01-14.42-0.01c-0.47-0.05-0.93-0.1-1.4-0.16c-2.19-0.16-4.38-0.32-6.57-0.49c-5.01-0.98-10.05-1.84-15.02-3
		c-2.51-0.58-3.2-0.35-2.68,2.49c2.77,15.32,3.61,30.68,0,46c-4.88,20.72-17.16,35.37-36.57,44.1c-1.15,0.52-2.08,1.52-3.11,2.3
		c-0.33,0.03-0.67,0.05-1,0.08c0,0-0.05-0.05-0.05-0.05c-0.66-0.03-1.32-0.06-1.98-0.09c-1.7,0.52-3.4,1.03-5.1,1.55
		c-0.7,0.2-1.41,0.39-2.11,0.59c-0.21,0.07-0.43,0.11-0.66,0.11c-0.35-0.06-0.7-0.12-1.05-0.17c0.34-0.32,0.62-0.79,1.02-0.93
		c12.57-4.31,23.13-11.33,31-22.24c8.29-11.49,13.04-24.44,13.68-38.36c0.51-11.25-0.74-22.63-1.98-33.87
		c-0.26-2.36-3.56-5.59-6.05-6.28c-6.8-1.88-9.83-5.72-9.58-12.63c0.85-23.2-16.48-29.1-34.52-36.05c-1.31-0.51-2.64-0.95-3.97-1.42
		c10.6,3.23,21.21,6.44,31.81,9.69c1.1,0.34,2.14,0.86,3.2,1.29c0.16-1.22,0.53-2.45,0.45-3.65c-0.31-4.79-0.75-9.57-1.15-14.36
		c1.16-4.22,2.32-8.45,3.47-12.67c1.66,2.6,2.77,6.09,5.13,7.59c3.05,1.94,7.11,2.3,10.74,3.34c2.81,0.57,5.62,1.14,8.42,1.72
		c0.67,0.13,1.34,0.26,2.02,0.39c15.93,0.05,31.88,0.71,47.77-0.1c7.54-0.38,14.94-3.54,22.41-5.43
		C774.28,629.49,774.47,629.46,774.66,629.37z"/>
	<path class="st3" d="M774.66,629.37c-0.19,0.08-0.38,0.12-0.58,0.1c-0.35-0.01-0.74-0.12-1.06-0.02
		c-20.44,6.66-41.44,6.44-62.53,4.99c-5.69-0.39-11.35-1.03-17.03-1.55c-3.63-1.04-7.68-1.4-10.74-3.34
		c-2.36-1.5-3.47-4.99-5.13-7.59c10.97-2.78,21.93-5.56,32.89-8.34c8.3-0.21,16.6-0.41,24.9-0.62c3.36,0.04,6.72,0.07,10.08,0.11
		c8.3,1.67,16.6,3.34,24.9,5.01C771.79,621.87,773.22,625.62,774.66,629.37z"/>
	<path class="st72" d="M665.42,633.79c-4.5-0.22-9.01-0.32-13.49-0.74c-0.96-0.09-1.82-1.33-2.72-2.04
		c2.93-18.32,5.86-36.63,8.79-54.95c1.93-12.06,3.94-24.1,5.59-36.19c0.12-0.86-2.44-2.09-3.75-3.14c0.22-0.21,0.44-0.42,0.66-0.64
		c1.11-2.48,2.21-4.96,3.32-7.44c0.95,1.41,1.89,2.82,2.84,4.23c0.86-1.13,1.72-2.26,2.58-3.39c2.26,8.39,2.26,8.39,9.9,4.26
		c0.59-0.32,1.23-0.52,2.22-0.94c-4.06,4.91-10.41,7.18-12.44,3.99C667.73,569.49,666.58,601.64,665.42,633.79z"/>
	<path class="st9" d="M735.38,613c-8.3,0.21-16.6,0.41-24.9,0.62c-3.1-3.04-6.2-6.08-9.3-9.12c-0.66-0.72-1.31-1.43-1.97-2.15
		c-1.21-4.08-5.13-9,3.58-9.68c1.48-0.12,2.78-2.56,4.16-3.93c0.52,0.01,1.04,0.02,1.55,0.02c3.04-2.45,5.76-5.92,9.22-6.98
		c2.26-0.69,5.59,2.11,8.44,3.35c0.55,0.76,1.09,1.52,1.64,2.28c6.35,6.61,12.71,13.22,19.06,19.83c-0.26,0.11-0.52,0.23-0.78,0.34
		C742.51,609.4,738.94,611.2,735.38,613z"/>
	<path class="st73" d="M727.79,587.42c-0.55-0.76-1.09-1.52-1.64-2.28c3.58-3.12,7.16-6.23,10.74-9.35
		c3.73-0.12,5.04,1.55,3.78,5.11C736.38,583.08,732.09,585.25,727.79,587.42z"/>
	<path class="st74" d="M699.21,602.35c0.66,0.72,1.31,1.43,1.97,2.15c-3.07,2.02-6.09,4.12-9.25,5.99
		c-0.95,0.56-2.29,0.47-3.44,0.68c0.61-0.98,1.01-2.25,1.87-2.89C693.21,606.18,696.24,604.31,699.21,602.35z"/>
	<path class="st75" d="M708.5,588.77c-0.52-0.01-1.04-0.02-1.55-0.02c-3.92-5.62-7.84-11.23-11.77-16.85
		c0.18-0.16,0.35-0.32,0.53-0.48C699.97,577.2,704.23,582.98,708.5,588.77z"/>
	<path class="st76" d="M674.58,554.53c-1.19,0.97-2.08,2.18-2.64,2.05c-0.87-0.21-1.52-1.35-2.26-2.09
		c0.71-0.66,1.39-1.78,2.15-1.84C672.55,552.59,673.36,553.64,674.58,554.53z"/>
	<path class="st77" d="M695.17,571.89c-2.78-3.63-5.56-7.26-8.34-10.89c0.3-0.23,0.6-0.46,0.9-0.69c2.66,3.7,5.32,7.4,7.98,11.1
		C695.53,571.57,695.35,571.73,695.17,571.89z"/>
	<path class="st78" d="M673.71,560.67c-0.82,0.36-1.8,1.17-2.43,0.96c-0.71-0.23-1.1-1.4-1.64-2.15c0.76-0.52,1.49-1.39,2.29-1.46
		c0.94-0.09,1.94,0.51,2.92,0.82C674.47,559.44,674.09,560.05,673.71,560.67z"/>
	<path class="st79" d="M235.29,446.06c5.14,6.06,10.26,12.13,15.47,18.14c0.54,0.62,1.59,0.8,2.4,1.18
		c-1.28,2.48-2.55,4.97-4.18,8.13C244.21,463.95,239.75,455.01,235.29,446.06z"/>
	<path class="st80" d="M623.48,621.25c-0.08-0.7-0.15-1.39-0.23-2.09c1.66-7.84,3.32-15.67,4.98-23.51
		c0.24,0.32,0.48,0.63,0.72,0.94C627.12,604.81,625.3,613.03,623.48,621.25z"/>
	<path class="st81" d="M628.94,596.6c-0.24-0.31-0.48-0.63-0.72-0.94c1.53-7.51,3.06-15.02,4.58-22.53c0.23,0.33,0.46,0.66,0.7,0.98
		C631.98,581.61,630.46,589.1,628.94,596.6z"/>
	<path class="st82" d="M633.5,574.11c-0.23-0.33-0.46-0.66-0.7-0.98c1.53-7.27,3.07-14.54,4.6-21.81c0.39,0.09,0.78,0.17,1.17,0.26
		C636.89,559.09,635.19,566.6,633.5,574.11z"/>
	<path class="st83" d="M620.88,584.61c1.39,3.61,2.77,7.22,4.16,10.83c-0.29,0.11-0.59,0.23-0.88,0.34
		c-1.42-3.59-2.84-7.19-4.26-10.78C620.22,584.88,620.55,584.74,620.88,584.61z"/>
	<path class="st84" d="M660.5,536.08c-0.22,0.21-0.44,0.42-0.66,0.64c-1.02-0.87-2.04-1.75-3.07-2.62c0.19-0.25,0.39-0.49,0.58-0.74
		C658.4,534.27,659.45,535.18,660.5,536.08z"/>
	<path class="st72" d="M646.23,632.89c-1.91-0.16-3.82-0.31-5.73-0.47C642.42,632.58,644.32,632.74,646.23,632.89z"/>
	<path class="st60" d="M791.8,673.52c1.45-0.38,2.9-0.75,4.35-1.13c-1.7,17.55-3.39,35.1-5.09,52.65c-0.49,1.31-1.09,2.58-1.46,3.92
		c-6.15,22.22-12.18,44.48-18.49,66.66c-1.45,5.09-1.82,8.44,5.11,7.24c0.84-0.15,1.79,0.36,2.69,0.57
		c-10.88-0.36-21.76-0.82-32.64-0.96c-1.43-0.02-2.88,1.64-4.33,2.53c-0.06-2.37-0.13-4.75-0.19-7.12c0.27-0.44,0.54-0.89,0.8-1.33
		c14.85-37.6,29.69-75.2,44.58-112.78C788.51,680.28,790.23,676.93,791.8,673.52z"/>
	<path class="st3" d="M778.9,803.43c-0.9-0.21-1.85-0.71-2.69-0.57c-6.93,1.2-6.56-2.14-5.11-7.24
		c6.31-22.18,12.33-44.44,18.49-66.66c0.37-1.34,0.97-2.62,1.46-3.92c0.06,0.22,0.07,0.44,0.04,0.66c0.19,1.44,0.37,2.88,0.56,4.33
		c2.5,21.58,9.77,40.7,27.94,54.21c-1.82,5.05-3.35,10.24-5.59,15.1c-1.02,2.22-3.44,3.8-5.23,5.68
		c-8.66-0.48-17.33-0.95-25.99-1.42C781.49,803.53,780.19,803.49,778.9,803.43z"/>
	<path class="st85" d="M811.1,809.91c0.67,0.49,1.34,0.98,2.01,1.47c-4.32,0.77-8.64,1.54-12.96,2.31
		c-0.03-0.18-0.06-0.36-0.09-0.53C803.74,812.07,807.42,810.99,811.1,809.91z"/>
	<path class="st86" d="M816.64,812.91c0.28,0.43,0.56,0.85,0.84,1.28c-3.32,0.92-6.64,1.84-9.95,2.76
		c-0.07-0.28-0.15-0.55-0.22-0.83C810.41,815.05,813.53,813.98,816.64,812.91z"/>
	<path class="st3" d="M661.15,791.51c0.33-0.03,0.67-0.05,1-0.08c3.94,6.18,7.88,12.36,11.82,18.54c-0.25-0.01-0.5-0.02-0.75-0.04
		C669.2,803.79,665.18,797.65,661.15,791.51z"/>
	<path class="st3" d="M676.85,811.23c-0.69-0.12-1.38-0.23-2.07-0.35C675.46,811,676.16,811.11,676.85,811.23z"/>
	<path class="st87" d="M843.8,396.89c0.75-0.72,1.49-1.44,2.24-2.16c4.13,2.81,4.24,6.69,2.42,10.69
		c-4.75,10.45-4.18,21.46-2.13,32.08c1.11,5.77,4.54,11.05,2.47,17.28c-0.51,1.52-1.03,3.04-2.22,4.38
		c0.13-0.96,0.18-1.93,0.41-2.86c1.29-5.26,0.55-9.73-1.57-15.13c-4.34-11.06-7.53-22.86-1.84-34.96
		C844.79,403.62,843.79,400.01,843.8,396.89z"/>
	<path class="st88" d="M858.84,411.6c1.42-0.18,2.85-0.35,4.27-0.53c-0.06,0.29-0.12,0.59-0.18,0.88c0.22,4.8-3.15,4.18-6.17,4.08
		C857.46,414.56,858.15,413.08,858.84,411.6z"/>
	<path class="st56" d="M864.77,402.67c-2.44,0.19-4.89,0.38-7.33,0.56c0.26-0.26,0.51-0.52,0.77-0.79c0.24-1.21,0.49-2.41,0.77-3.79
		C860.99,400.06,862.88,401.36,864.77,402.67z"/>
	<path class="st89" d="M541.96,690.87c0.53-0.01,1.06-0.01,1.59-0.02c-0.04,25.44-0.1,50.88-0.03,76.32c0,1.32,0.89,2.87,1.82,3.91
		c10.28,11.49,20.64,22.91,31.01,34.32c0.78,0.85,1.81,1.47,2.73,2.2c0.27,0.29,0.54,0.58,0.82,0.87c-0.2,0.58-0.39,1.17-0.59,1.75
		c-0.3-0.31-0.6-0.62-0.9-0.94c-4.2-5.06-8.2-10.31-12.65-15.14c-6.74-7.32-13.92-14.24-20.63-21.6c-1.62-1.77-2.95-4.58-2.97-6.92
		C541.92,740.72,541.98,715.79,541.96,690.87z"/>
	<path class="st90" d="M529.87,690.17c1.7,0.23,3.41,0.46,5.11,0.68c-0.01,25.19,0.04,50.38-0.14,75.57
		c-0.01,1.94-1.13,4.28-2.48,5.73c-7.06,7.52-14.37,14.81-21.59,22.19c-0.3-0.47-0.6-0.94-0.91-1.4
		c7.63-7.59,15.3-15.14,22.81-22.84c0.81-0.83,0.89-2.61,0.89-3.95c0.05-23.6-0.03-47.19,0.11-70.79
		C533.69,692.3,533.18,690.41,529.87,690.17z"/>
	<path class="st3" d="M578.4,809.29c0.3,0.31,0.6,0.62,0.9,0.94c-0.07,0.37-0.14,0.74-0.21,1.1c-0.43,0-0.86,0-1.29,0
		C578.01,810.65,578.21,809.97,578.4,809.29z"/>
	<path class="st3" d="M651.91,793.5c0.71-0.2,1.41-0.39,2.11-0.59C653.32,793.11,652.62,793.31,651.91,793.5z"/>
	<path class="st3" d="M659.13,791.37c0.66,0.03,1.32,0.06,1.98,0.09C660.44,791.43,659.78,791.4,659.13,791.37z"/>
	<path class="st2" d="M882.58,797.92c-9.76-30.64-19.53-61.27-29.19-91.93c-0.25-0.78,0.54-2.7,1.08-2.8
		c6.51-1.22,13.04-2.45,19.62-3.04c1.37-0.12,3.82,2.11,4.32,3.7c1.29,4.14,2.07,8.51,2.45,12.84c0.2,2.34,2.24,6.28-3.02,6.5
		c-0.22,0.01-0.61,2.15-0.42,3.2c0.11,0.59,1.29,1.42,1.96,1.38c5.93-0.29,11.85-0.69,17.77-1.21c0.65-0.06,1.7-1.01,1.73-1.59
		c0.06-1.06-0.38-3.04-0.83-3.1c-7.02-0.98-3.09-6.3-3.42-9.43c-0.38-3.63,0.73-7.5,1.64-11.15c0.32-1.29,1.92-3.17,3.01-3.23
		c6.95-0.38,13.93-0.38,20.9-0.27c0.41,0.01,1.26,2.13,1.12,3.16c-4.07,29.76-8.25,59.5-12.4,89.25c-0.15,1.05-0.15,2.13-0.22,3.19
		c-0.93,1.23-1.86,2.45-2.79,3.68c-6.52,0.48-13.03,0.99-19.55,1.39C885.1,798.54,883.83,798.11,882.58,797.92z"/>
	<path class="st2" d="M727.79,587.42c4.29-2.17,8.59-4.34,12.88-6.51c5.16,8.27,10.31,16.54,15.47,24.81
		c-2.98,1.22-5.26,6.72-9.29,1.53C740.5,600.64,734.15,594.03,727.79,587.42z"/>
	<path class="st20" d="M746.85,607.25c4.03,5.19,6.31-0.3,9.29-1.53c2.82-1.7,5.64-3.39,8.47-5.09c1.92,5.83,3.83,11.66,5.75,17.49
		c-8.3-1.67-16.6-3.34-24.9-5.01c2.85-1.54,4.23-3.25,0.61-5.52C746.33,607.48,746.59,607.36,746.85,607.25z"/>
	<path class="st91" d="M850.9,322.82c2.98,0.97,5.3,1.08,5.68,2c0.66,1.6,0.85,4.18-0.05,5.47c-2.7,3.9-6.54,4.09-10.23,1.32
		c-3.75-2.82-5.36-7.37-1.81-10.37c3.54-2.99,8.79-5.01,13.37-5.18c1.71-0.06,4.5,6.13,5.28,9.79c0.93,4.35,0.22,9.06-0.8,13.56
		c0-4.34,0.64-8.81-0.2-12.98c-0.7-3.49-3.07-9.34-4.79-9.37c-3.97-0.07-8.34,2.26-11.82,4.67c-1.2,0.83-1.22,5.52-0.02,7.08
		c1.4,1.81,4.75,2.84,7.23,2.81c1.29-0.02,2.53-3.05,3.8-4.73C855.21,325.92,853.88,324.97,850.9,322.82z"/>
	<path class="st92" d="M742.55,796.55c-0.27,0.44-0.54,0.89-0.8,1.33c-4.06-3.82-8.24-7.52-12.09-11.53
		c-1.05-1.09-1.54-3.13-1.55-4.73c-0.09-25.76-0.06-51.52-0.09-77.28c0-1.39-0.34-2.78-0.52-4.17c4.81,0,9.61,0.01,14.42,0.01
		c-3.18,0.17-6.41,0.05-9.5,0.64c-1.27,0.25-3.21,2.02-3.22,3.11c-0.18,25.99-0.15,51.98-0.11,77.98c0,1.02,0.02,2.4,0.63,2.99
		C733.9,788.88,738.25,792.69,742.55,796.55z"/>
	<path class="st30" d="M763.88,450.92c1.66,5.09,3.4,10.16,4.93,15.28c0.33,1.09-0.08,2.4-0.15,3.6c-0.95-0.51-2.02-0.86-2.82-1.54
		c-3.05-2.61-6.14-5.2-8.96-8.04c-1.05-1.05-2.33-3.28-1.89-4.12c0.99-1.9,3-3.27,4.59-4.85
		C761.01,451.15,762.45,451.03,763.88,450.92z"/>
	<path class="st93" d="M182.34,402.53c0.36-0.5,0.72-1,1.09-1.5c3.56,1.32,7.13,2.64,10.69,3.96c-0.12,0.18-0.24,0.36-0.36,0.54
		C189.95,404.54,186.14,403.54,182.34,402.53z"/>
	<path class="st94" d="M188.26,398.26c0.25-0.44,0.49-0.89,0.74-1.33c3.61,1.21,7.21,2.41,10.82,3.62c-0.13,0.24-0.27,0.48-0.4,0.72
		C195.69,400.26,191.97,399.26,188.26,398.26z"/>
	<path class="st0" d="M529.87,690.17c3.32,0.24,3.83,2.13,3.81,5.18c-0.14,23.6-0.06,47.19-0.11,70.79c0,1.34-0.08,3.12-0.89,3.95
		c-7.51,7.71-15.19,15.25-22.81,22.84c-0.94-2.61-1.88-5.23-2.83-7.84c1.2-0.85,3.45-1.69,3.45-2.54
		c-0.1-30.88-0.42-61.77-0.7-92.65c1.13-0.77,2.34-2.28,3.38-2.17C518.75,688.33,524.3,689.32,529.87,690.17z"/>
	<path class="st4" d="M491.39,786.41c1.65-0.21,3.31-0.42,4.96-0.64C494.69,785.99,493.04,786.2,491.39,786.41z"/>
	<path class="st9" d="M183.94,410.49c-0.91,0.15-1.83,0.3-2.74,0.45C182.11,410.78,183.02,410.64,183.94,410.49z"/>
	<path class="st95" d="M160.59,785.32c-0.54-7.7-1.4-15.39-1.57-23.09c-0.61-27.9-1.46-55.8-1.31-83.7
		c0.13-23.84,10.79-44.19,23.84-63.37c14.39-21.13,31.83-39.57,50.83-56.58c0.82-0.74,1.78-1.32,3.22-1.32
		c-4.2,3.88-8.5,7.66-12.59,11.66c-24.43,23.91-46.48,49.5-58.95,82.06c-6.63,17.31-5.44,35.32-5.14,53.16
		c0.45,26.33,1.78,52.65,2.72,78.98c0.03,0.73-0.18,1.48-0.28,2.21C161.12,785.33,160.85,785.33,160.59,785.32z"/>
	<path class="st96" d="M506.49,645.12c7.69,0.44,15.4,1.5,23.05,1.2c14.33-0.56,28.63-1.91,40.74-2.77
		c-4.5,0.77-11.33,2.77-18.2,2.93c-15.02,0.34-30.06-0.25-45.09-0.46C506.83,645.72,506.66,645.42,506.49,645.12z"/>
	<path class="st97" d="M465.01,643.11c-1.58,0.65-3.15,1.3-6.5,2.68c2.41-1.88,3.38-2.63,4.35-3.39
		C463.58,642.64,464.29,642.88,465.01,643.11z"/>
	<path class="st0" d="M410.65,468.59c0.81-0.43,1.61-0.86,2.42-1.29c1.38-0.58,2.76-1.16,4.14-1.74
		c5.97-3.83,12.13-7.39,17.85-11.56c5.84-4.26,8.59-3.77,11.82,2.81c4.01,8.19,8.17,16.31,12.27,24.46c0.27,0.68,0.53,1.36,0.8,2.04
		c-1.67,2.63-3.34,5.26-5.01,7.89c-7.33,9.32-14.76,18.57-21.93,28.01c-2.23,2.94-2.88,2.32-4.15-0.61
		c-5.75-13.3-13.35-24.85-28.97-27.86c-2.99-0.58-6.14-0.33-9.22-0.47c-0.47-0.98-0.94-1.95-1.41-2.93
		c-1.18-4.48-0.27-6.63,5.06-7.73c2.08-0.43,3.01-6.4,4.46-9.85C402.74,469.38,406.7,468.99,410.65,468.59z"/>
	<path class="st38" d="M454.94,491.2c1.67-2.63,3.34-5.26,5.01-7.89c9.64,7.17,15.23,16.87,17.77,28.48
		c0.08,0.41,0.16,0.82,0.25,1.23c-1.69,1.22-3.37,2.44-5.05,3.65C466.92,508.18,460.93,499.69,454.94,491.2z"/>
	<path class="st98" d="M395.08,502.46c-3.24-3.21-6.48-6.43-9.72-9.64c0.43-0.41,0.86-0.82,1.3-1.23c3.74,2.95,7.48,5.91,11.22,8.86
		c4.03,3.4,8.07,6.81,12.1,10.21c-0.32,0.45-0.65,0.9-0.97,1.36C404.37,508.84,399.73,505.65,395.08,502.46z"/>
	<path class="st99" d="M472.91,516.67c1.68-1.22,3.37-2.44,5.06-3.65c0.9,1.04,1.8,2.08,2.7,3.12c-0.52,1.38-1.03,2.76-1.55,4.13
		c-2.62,1.66-5.23,3.31-7.85,4.97c-1.19-0.21-2.38-0.42-3.75-0.67C469.19,522.12,471.05,519.4,472.91,516.67z"/>
	<path class="st100" d="M408.66,535.19c2.51,1.86,6.52,3.33,7.12,5.67c0.67,2.6-1.78,6-3.08,9.64c0.29-2.26,0.7-4.06,0.7-5.86
		c0-1.73,0.04-3.76-0.82-5.1c-0.98-1.54-2.92-2.46-4.44-3.65C408.32,535.66,408.49,535.43,408.66,535.19z"/>
	<path class="st2" d="M617.22,666.6c35.21-0.05,58.72,22.35,60.52,54.1c0.94,16.59-1.34,32.32-11.94,45.75
		c-13.5,17.12-39.46,22.56-63.26,13.61c-35.02-13.17-50.91-57.1-31.65-88.3C582.24,673.39,600.18,667.22,617.22,666.6z"/>
	<path class="st0" d="M579.08,807.61c-0.92-0.73-1.95-1.35-2.73-2.2c-10.37-11.41-20.73-22.83-31.01-34.32
		c-0.93-1.04-1.82-2.59-1.82-3.91c-0.07-25.44-0.01-50.88,0.03-76.32c0.46-0.06,0.93-0.11,1.39-0.17c0.37,1.55,1.3,3.2,1.03,4.63
		c-5.8,30.15,1.62,56.4,23.65,77.92c5.53,5.4,12.68,9.12,18.93,13.8c0.74,0.56,1.16,2.7,0.7,3.52
		C586.01,796.33,582.5,801.94,579.08,807.61z"/>
	<path class="st101" d="M480.66,516.14c-0.9-1.04-1.8-2.08-2.7-3.12c-0.08-0.41-0.16-0.82-0.25-1.23c1.71-2.86,3.41-5.71,5.12-8.57
		c2.84,2.58,5.69,5.16,8.53,7.74C487.8,512.69,484.23,514.42,480.66,516.14z"/>
	<path class="st102" d="M526.51,444.47c-6.97-1.43-13.95-2.85-20.92-4.28c0.09-0.47,0.18-0.94,0.26-1.42
		c7.01,1.32,14.02,2.65,21.03,3.97C526.75,443.32,526.63,443.9,526.51,444.47z"/>
	<path class="st103" d="M513.15,522.62c-3.25-7.09-6.5-14.17-9.75-21.26c0.33-0.15,0.66-0.3,1-0.45c3.27,7.09,6.55,14.17,9.82,21.26
		C513.86,522.32,513.5,522.47,513.15,522.62z"/>
	<path class="st104" d="M492.02,511.81c-1.21,4.22-2.42,8.43-3.63,12.65c-0.6,0.5-1.21,1-0.97,0.81c1.2-4.03,2.61-8.78,4.03-13.52
		C491.64,511.73,491.83,511.76,492.02,511.81z"/>
	<path class="st105" d="M459.15,481.27c-4.1-8.15-8.25-16.27-12.27-24.46c-3.22-6.58-5.98-7.06-11.82-2.81
		c-5.72,4.17-11.88,7.73-17.85,11.56c7.66-6.61,15.18-13.39,23.14-19.62c1.08-0.85,5.27,0.33,6.4,1.81
		c5.79,7.57,11.05,15.56,16.51,23.38c1,1.43,2.07,2.8,3.11,4.2C463.96,477.32,461.56,479.29,459.15,481.27z"/>
	<path class="st106" d="M842.26,666.4c-0.69,11.35-0.9,22.75-2.23,34.03c-0.99,8.39-4.42,10.84-11.58,9.6
		c-1.73-0.3-4.16-2.71-4.36-4.38c-0.31-2.64,0.98-5.47,1.6-8.23c1.33,0.38,3.44,0.38,3.85,1.21c1,2.02,1.33,4.42,1.71,6.7
		c0.22,1.3,0.01,2.66,0,4c1.74-1.01,4.71-1.74,5.01-3.08c1.58-6.99,3.29-14.11,3.44-21.22c0.27-12.57-0.79-25.16-0.81-37.74
		c-0.01-4.54,0.99-9.21,2.26-13.6c1.67-5.78,6.78-6.93,11.01-4.36c2.24,1.36,2.48,6.34,3.09,9.78c0.15,0.84-1.78,2.84-2.83,2.89
		c-1.1,0.06-2.91-1.38-3.29-2.53c-0.72-2.17-0.67-4.6-0.87-6.93c-0.08-0.93,0.05-1.89,0.08-2.83c-1.19,0.4-3.12,0.47-3.46,1.24
		c-1.55,3.51-3.49,7.15-3.74,10.85c-0.55,8.15-0.17,16.36-0.17,24.55C841.39,666.36,841.83,666.38,842.26,666.4z"/>
	<path class="st107" d="M953.4,693.64c-2.08,2.8-3.04,5.39-4.85,6.28c-3.95,1.96-8.79,2.33-10.76-2.45
		c-3.09-7.5-5.86-15.28-7.43-23.21c-2.53-12.79-3.68-25.85-6.07-38.68c-0.71-3.84-3.46-7.36-5.61-10.82
		c-0.45-0.72-2.36-0.53-3.6-0.76c0.16,0.99,0.55,2.01,0.44,2.98c-0.35,3.22-0.85,6.43-1.48,9.6c-0.01,0.07-3.16-0.12-3.22-0.48
		c-0.63-3.53-2.12-7.54-1.03-10.58c1.67-4.66,10.3-4.26,12.47,0.88c2.95,7.01,4.96,14.53,6.41,22.02c2.56,13.27,4.12,26.73,6.72,40
		c0.73,3.72,3.46,7.14,5.7,10.41c0.57,0.83,2.77,0.53,4.22,0.75c-0.21-1.01-0.42-2.01-0.64-3.02c-0.15-0.7-0.62-1.51-0.41-2.06
		c0.98-2.62,2.15-5.16,3.25-7.74C949.31,688.87,951.12,690.98,953.4,693.64z"/>
	<path class="st108" d="M876.77,541.99c0.86,0.23,1.71,0.46,2.57,0.68c2.19,26.79,4.39,53.57,6.59,80.36
		c-0.91,0.2-1.82,0.41-2.74,0.61c-0.84-9.04-1.81-18.08-2.5-27.14C879.3,578.34,878.07,560.16,876.77,541.99z"/>
	<path class="st109" d="M872.5,541.01c0.94,0.24,1.88,0.47,2.82,0.71c0.3,3.78,0.6,7.57,0.89,11.35
		c1.78,23.53,3.55,47.06,5.32,70.58c-0.89,0.02-1.79,0.04-2.68,0.05C876.74,596.14,874.62,568.57,872.5,541.01z"/>
	<path class="st110" d="M880.42,543.1c0.44,0.01,0.88,0.03,1.32,0.04c0.08,0.89,0.15,1.77,0.23,2.65c0.05,0.34,0.09,0.68,0.14,1.03
		c2.19,24.23,4.41,48.47,6.48,72.71c0.09,1.08-1.19,2.28-1.83,3.42C884.64,596.34,882.53,569.72,880.42,543.1z"/>
	<path class="st111" d="M867.27,543.13c0.74-0.4,1.48-0.8,2.22-1.21c1.03,15.81,2.06,31.61,3.08,47.42
		c0.14,1.01,0.27,2.02,0.41,3.02c0.1,2.32,0.2,4.64,0.3,6.96c0.13,1.01,0.26,2.02,0.39,3.03c0.11,2.32,0.23,4.64,0.34,6.96
		c0.14,1.01,0.27,2.02,0.41,3.03c0.09,2.09,0.18,4.18,0.27,6.26c0.15,1.24,0.3,2.48,0.45,3.72c0.04,0.46,0.09,0.93,0.13,1.39
		c-0.29-0.02-0.59-0.04-0.88-0.06c-1.26-16.11-2.53-32.22-3.83-48.84c-0.24,1.22-0.38,1.98-0.53,2.74
		C869.11,566.09,868.19,554.61,867.27,543.13z"/>
	<path class="st112" d="M874.39,623.67c0.29,0.02,0.59,0.04,0.88,0.06c0.7-1.04,2.07-2.12,2-3.11c-1.84-26.47-3.83-52.93-5.79-79.39
		c0.34-0.07,0.68-0.14,1.02-0.22c2.12,27.57,4.23,55.13,6.35,82.7c-1.7,0.21-3.4,0.42-5.1,0.64
		C873.97,624.11,874.18,623.89,874.39,623.67z"/>
	<path class="st113" d="M881.53,623.65c-1.77-23.53-3.55-47.06-5.32-70.58c-0.29-3.78-0.59-7.57-0.89-11.35
		c0.48,0.09,0.96,0.18,1.44,0.27c1.3,18.17,2.53,36.35,3.92,54.52c0.69,9.06,1.66,18.09,2.5,27.14
		C882.64,623.64,882.09,623.65,881.53,623.65z"/>
	<path class="st114" d="M880.42,543.1c2.11,26.62,4.22,53.23,6.34,79.85c-0.28,0.03-0.55,0.05-0.83,0.08
		c-2.2-26.79-4.39-53.57-6.59-80.36C879.7,542.82,880.06,542.96,880.42,543.1z"/>
	<path class="st115" d="M874.39,623.67c-0.21,0.22-0.42,0.45-0.64,0.67c-0.66-6.26-1.42-12.51-1.96-18.78
		c-0.47-5.53-0.68-11.08-1-16.62c-0.13-1.24-0.27-2.49-0.4-3.73c-0.12-2.55-0.25-5.09-0.37-7.64c0.15-0.76,0.29-1.52,0.53-2.74
		C871.86,591.45,873.13,607.56,874.39,623.67z"/>
	<path class="st116" d="M878.75,509.62c-0.46-0.06-0.92-0.12-1.38-0.18c-0.74-10.38-1.48-20.77-2.23-31.16
		c0.24-0.49,0.48-0.98,0.72-1.48c0.96,5.05,1.91,10.11,2.87,15.16c-0.37-0.07-0.74-0.15-1.1-0.22c0,1.69-0.08,3.39,0.02,5.08
		c0.12,1.89,0.41,3.76,0.62,5.64C878.43,504.86,878.59,507.24,878.75,509.62z"/>
	<path class="st117" d="M883.06,713.41c0.66,2.83,1.31,5.66,1.97,8.49c-0.78,0.15-1.56,0.29-2.35,0.44
		c-0.53-2.86-1.05-5.71-1.58-8.57C881.76,713.65,882.41,713.53,883.06,713.41z"/>
	<path class="st118" d="M894.39,715.92c-0.59,1.99-1.16,3.98-1.88,5.92c-0.03,0.07-1.5-0.4-2.3-0.61c0.79-1.98,1.59-3.95,2.38-5.93
		C893.19,715.51,893.79,715.71,894.39,715.92z"/>
	<path class="st119" d="M890.77,720.41c-1.59,0.98-2.31,1.77-2.88,1.68c-0.75-0.12-1.63-0.81-1.99-1.5
		c-0.19-0.36,0.74-1.83,0.99-1.79C887.89,718.98,888.82,719.54,890.77,720.41z"/>
	<path class="st60" d="M791.65,730.03c-0.19-1.44-0.37-2.88-0.56-4.33C791.28,727.14,791.46,728.58,791.65,730.03z"/>
	<path class="st111" d="M870.4,585.2c0.13,1.24,0.27,2.49,0.4,3.73C870.67,587.69,870.54,586.45,870.4,585.2z"/>
	<path class="st9" d="M882.1,546.82c-0.05-0.34-0.09-0.69-0.14-1.03C882.01,546.14,882.05,546.48,882.1,546.82z"/>
	<path class="st120" d="M875.86,476.81c-0.24,0.49-0.48,0.98-0.72,1.48c-0.26,0.25-0.53,0.51-0.79,0.76
		c-1.18-12.85-2.36-25.7-3.54-38.54c1.21,0,2.42,0.01,3.62,0.01c-0.34,2.78-1.13,5.58-0.95,8.32
		C874.1,458.17,875.04,467.49,875.86,476.81z"/>
	<path class="st121" d="M870.82,440.51c1.18,12.85,2.36,25.7,3.54,38.54c0.73,10.11,1.46,20.21,2.18,30.32
		c-0.88-0.14-1.77-0.27-2.65-0.41c-1.72-22.85-3.45-45.7-5.17-68.56C869.41,440.43,870.11,440.47,870.82,440.51z"/>
	<path class="st121" d="M872.86,508.92c-0.82,0.12-1.65,0.25-2.47,0.37c-1.7-22.98-3.4-45.96-5.1-68.94
		c0.71,0.01,1.43,0.01,2.14,0.02C869.25,463.22,871.06,486.07,872.86,508.92z"/>
	<path class="st122" d="M866.9,510.09c-1.65-23.42-3.31-46.84-4.96-70.26c0.72,0.14,1.43,0.28,2.15,0.42
		c1.73,23.07,3.45,46.13,5.18,69.2C868.48,509.66,867.69,509.87,866.9,510.09z"/>
	<path class="st123" d="M869.27,509.44c-1.73-23.07-3.45-46.13-5.18-69.2c0.4,0.03,0.8,0.07,1.21,0.1c1.7,22.98,3.4,45.96,5.1,68.94
		C870.02,509.34,869.65,509.39,869.27,509.44z"/>
	<path class="st124" d="M872.86,508.92c-1.81-22.85-3.62-45.7-5.43-68.55c0.43,0.01,0.85,0.02,1.27,0.03
		c1.72,22.85,3.45,45.7,5.17,68.56C873.55,508.94,873.21,508.93,872.86,508.92z"/>
	<path class="st125" d="M862.93,411.95c0.06-0.29,0.12-0.59,0.18-0.88c1.61,0.15,3.35,0.01,4.78,0.6c0.66,0.27,0.89,1.94,1.02,3.02
		c0.05,0.44-0.79,1.43-1.09,1.37c-1.62-0.29-3.28-0.66-4.73-1.4C862.69,414.45,862.97,412.89,862.93,411.95z"/>
	<path class="st125" d="M871.75,414.09c-0.57,0.49-0.97,0.83-1.37,1.18c-0.31-0.54-0.78-1.06-0.86-1.63
		c-0.05-0.35,0.51-0.79,0.8-1.19C870.74,412.94,871.17,413.44,871.75,414.09z"/>
	<path class="st0" d="M742.55,796.55c-4.3-3.86-8.65-7.67-12.84-11.65c-0.61-0.58-0.63-1.97-0.63-2.99
		c-0.03-25.99-0.07-51.99,0.11-77.98c0.01-1.09,1.95-2.87,3.22-3.11c3.09-0.6,6.33-0.48,9.5-0.64c13.54-0.4,26.17-4.02,37.66-11.19
		c1.43-0.89,2.75-3.14,2.83-4.83c0.45-8.5,0.47-17.02,0.64-25.53c0-1.87,0-3.74,0-5.61c0.23-0.05,0.46-0.1,0.69-0.15
		c1.99,5.74,3.94,11.49,6.01,17.2c0.45,1.24,1.35,2.31,2.05,3.45c-1.56,3.41-3.29,6.76-4.67,10.25
		C772.24,721.35,757.4,758.95,742.55,796.55z"/>
	<path class="st126" d="M871.48,541.22c1.96,26.46,3.95,52.92,5.79,79.39c0.07,0.98-1.3,2.07-2,3.11c-0.04-0.46-0.09-0.93-0.13-1.39
		c-0.15-1.24-0.3-2.48-0.45-3.72c-0.09-2.09-0.18-4.18-0.27-6.26c-0.14-1.01-0.27-2.02-0.41-3.03c-0.11-2.32-0.23-4.64-0.34-6.96
		c-0.13-1.01-0.26-2.02-0.39-3.03c-0.1-2.32-0.2-4.64-0.3-6.96c-0.14-1.01-0.27-2.02-0.41-3.02c-1.03-15.81-2.06-31.61-3.08-47.42
		C870.16,541.69,870.82,541.46,871.48,541.22z"/>
	<path class="st127" d="M864.5,505.28c0.24,1.89,0.47,3.78,0.71,5.68c-2.17,1.28-4.33,2.56-6.5,3.84c0.93-1.92,1.86-3.85,2.79-5.77
		C862.49,507.77,863.49,506.53,864.5,505.28z"/>
	<path class="st128" d="M876.53,509.37c-0.73-10.11-1.46-20.21-2.18-30.32c0.26-0.25,0.53-0.51,0.79-0.76
		c0.74,10.39,1.48,20.77,2.23,31.16C877.09,509.42,876.81,509.39,876.53,509.37z"/>
	<path class="st7" d="M883.07,518.88c1.19,0.95,2.38,1.9,3.57,2.85c0,0,0.05-0.06,0.05-0.06c-1.19-0.95-2.38-1.9-3.57-2.85
		L883.07,518.88z"/>
	<path class="st7" d="M880.24,517.41c-1.16,0-2.33,0-3.49,0c0.04-0.26,0.08-0.52,0.12-0.79c1.11,0.28,2.22,0.56,3.33,0.85
		C880.19,517.47,880.24,517.41,880.24,517.41z"/>
	<path class="st7" d="M883.12,518.83c-0.96-0.47-1.92-0.94-2.88-1.42c0,0-0.05,0.06-0.05,0.06c0.96,0.47,1.92,0.94,2.88,1.42
		C883.07,518.88,883.12,518.83,883.12,518.83z"/>
	<path class="st7" d="M883.09,527.4c-0.94-0.48-1.87-0.97-2.81-1.45c0,0-0.04,0.05-0.04,0.05c0.93,0.49,1.87,0.97,2.8,1.46
		L883.09,527.4z"/>
	<path class="st7" d="M880.28,525.95c-0.92,0-1.85,0-2.78,0c0.02-0.19,0.04-0.37,0.06-0.56c0.89,0.2,1.78,0.41,2.68,0.61
		C880.24,526,880.28,525.95,880.28,525.95z"/>
	<path class="st7" d="M883.04,527.46c0.65,0.24,1.29,0.47,0.2,0.07c0.89,0.75,0.37,0.31-0.15-0.13
		C883.09,527.4,883.04,527.46,883.04,527.46z"/>
	<path class="st129" d="M693.46,632.9c5.68,0.52,11.35,1.16,17.03,1.55c21.08,1.44,42.08,1.66,62.53-4.99
		c0.32-0.1,0.7,0.01,1.06,0.02c-7.46,1.9-14.87,5.05-22.41,5.43c-15.88,0.8-31.84,0.15-47.76,0.1c-0.67-0.13-1.35-0.26-2.02-0.4
		C699.07,634.04,696.27,633.47,693.46,632.9z"/>
	<path class="st3" d="M701.88,634.61c0.67,0.13,1.35,0.26,2.02,0.4C703.23,634.88,702.55,634.75,701.88,634.61z"/>
	<path class="st130" d="M746.07,607.59c3.62,2.27,2.24,3.98-0.61,5.52c-3.36-0.04-6.72-0.07-10.08-0.11
		C738.94,611.2,742.51,609.4,746.07,607.59z"/>
	<path class="st115" d="M874.69,618.61c0.15,1.24,0.3,2.48,0.45,3.72C874.99,621.09,874.84,619.85,874.69,618.61z"/>
	<path class="st115" d="M873.29,599.33c0.13,1.01,0.26,2.02,0.39,3.03C873.55,601.35,873.42,600.34,873.29,599.33z"/>
	<path class="st115" d="M872.58,589.34c0.14,1.01,0.27,2.02,0.41,3.02C872.85,591.36,872.72,590.35,872.58,589.34z"/>
	<path class="st115" d="M874.02,609.31c0.14,1.01,0.27,2.02,0.41,3.03C874.29,611.33,874.15,610.32,874.02,609.31z"/>
</g>
</svg>
