<?xml version="1.0" encoding="utf-8"?>
<!-- Generator: Adobe Illustrator 24.1.1, SVG Export Plug-In . SVG Version: 6.00 Build 0)  -->
<svg version="1.1" id="Layer_1" xmlns="http://www.w3.org/2000/svg" xmlns:xlink="http://www.w3.org/1999/xlink" x="0px" y="0px"
	 viewBox="0 0 728 251" style="enable-background:new 0 0 728 251;" xml:space="preserve">
<style type="text/css">
	.st0{fill:#738AD9;}
	.st1{fill:#748BDA;}
</style>
<g>
	<path class="st0" d="M195.53,218.27c-13.94-11.69-27.92-23.41-41.86-35.1c-0.34,0.12-0.68,0.28-1.02,0.4
		c1.02,3.7,1.94,7.43,3.12,11.07c0.74,2.31,0.56,3.24-2.25,3.24c-35.97-0.09-71.9,0.19-107.87-0.22
		c-10.95-0.12-19.99-7.99-19.86-20.79c0.4-40.16,0.37-80.32,0.03-120.48c-0.12-12.83,9.1-20.57,20.54-20.64
		c43.52-0.22,87.05-0.15,130.54-0.06c9.9,0.03,17.4,6.26,18.78,15.02c-0.03,2.16-0.12,4.32-0.12,6.45
		C195.53,110.89,195.53,164.56,195.53,218.27z M147.35,140.66c-3.82,2.19-7.65,4.29-11.41,6.57c-0.77,0.46-1.82,1.7-1.67,2.25
		c1.2,3.92,5.61,6.63,9.69,5.43c5.98-1.76,12.09-3.55,17.61-6.39c4.66-2.41,7.9-6.26,7.19-12.65c-1.54-14.1-4.26-27.64-10.61-40.59
		c-3.12-6.39-7.31-10.55-13.6-12.71c-5.43-1.85-11.14-2.93-16.69-4.35c-0.09,0.46-0.22,0.96-0.31,1.42
		c5.74,2.68,11.51,5.4,17.24,8.08c-0.22,0.22-0.43,0.46-0.65,0.68c-9.13-1.94-18.17-4.69-27.39-5.64
		c-13.63-1.42-26.9,1.54-39.7,6.32c-0.19-0.22-0.34-0.43-0.52-0.65c6.39-3.15,12.77-6.26,19.74-9.72c-9.01,0.34-16.66,2.9-23.6,7.46
		c-1.97,1.3-4.32,2.71-5.31,4.69c-6.35,12.92-10.21,26.65-11.66,40.96c-1.05,10.46,2.31,15.89,12.09,19.86
		c2.96,1.2,6.26,1.63,9.25,2.81c5.21,2.1,8.7-0.43,11.97-3.92c1.57-1.7,1.97-2.53-0.89-3.67c-4.32-1.73-8.27-4.44-12.34-6.76
		c0.28-0.49,0.56-1.02,0.83-1.51c0.93,0.4,1.85,0.8,2.78,1.23c9.16,4.26,18.72,6.69,28.84,7.37c13.48,0.93,25.88-2.65,38.09-7.62
		C146.7,140.04,147.01,140.35,147.35,140.66z"/>
	<path class="st0" d="M616.42,243.34c-11.94-0.31-11.81-0.31-14.5-12.18c-1.94-8.61-4.2-17.18-6.51-25.69
		c-0.31-1.14-1.7-1.97-2.59-2.96c-0.96,1.14-2.62,2.25-2.71,3.45c-1.05,11.01-1.97,22.05-2.59,33.1c-0.19,3.18-1.14,4.26-4.32,4.23
		c-3.98-0.03-7.99,0.46-12,0.83c-2.22,0.22-3.3-0.31-3.45-2.9c-0.77-14.74-1.76-29.46-2.56-44.2c-1.33-24.24-2.53-48.52-3.95-72.76
		c-0.31-5.43-1.14-10.86-1.82-16.29c-0.31-2.53,0.56-3.52,3.24-3.61c15.58-0.46,31.12-1.17,46.7-1.54
		c8.17-0.19,14.28,3.67,17.74,11.04c5.34,11.44,8.24,23.66,6.26,36.12c-2,12.62-4.13,25.82-13.42,35.53
		c-4.57,4.81-5.03,8.51-3.12,14.53c4.13,12.86,7.06,26.1,10.73,39.08c0.99,3.49,0.15,4.44-3.3,4.16
		C621.66,243.19,619.04,243.34,616.42,243.34z M603.03,151.64c-0.09-7.31-2.75-10.92-7.65-11.66c-5.15-0.74-6.2,0.12-6.08,5.4
		c0.19,6.57,0.59,13.14,0.65,19.71c0.03,3.18,1.26,3.24,3.61,2.04C600.47,163.61,601.67,156.98,603.03,151.64z"/>
	<path class="st0" d="M553.31,134.52c-1.08,30.69-1.97,58.05-3.05,85.41c-0.68,16.69-9.78,25.26-26.43,25.17
		c-5.06-0.03-10.24,0.03-15.15-0.99c-7.74-1.6-11.51-7.9-12.89-14.84c-1.91-9.44-2.87-19.12-3.7-28.75
		c-1.54-17.77-2.59-35.56-4.01-53.33c-0.4-5.27-1.3-10.52-1.97-15.79c-0.89-7.06,1.17-13.57,5.46-18.78
		c2.53-3.08,6.82-6.17,10.55-6.48c11.17-0.93,22.46-0.74,33.68-0.43c3.39,0.09,6.88,1.57,10.09,2.99c3.7,1.63,6.11,4.6,6.39,8.91
		C552.69,124.34,553.09,131.06,553.31,134.52z M526.91,165.15c0.09,0,0.22,0,0.31,0c0-4.32,0.34-8.67-0.12-12.92
		c-0.25-2.19-1.42-4.81-3.08-6.11c-1.42-1.08-5.21-1.45-6.01-0.49c-2.1,2.5-4.41,5.92-4.35,8.91c0.37,12.89,1.54,25.76,2.53,38.62
		c0.49,6.26,0.86,12.58,2,18.75c0.37,2.04,3.02,3.67,4.66,5.46c1.79-1.79,4.29-3.27,5.18-5.43c0.99-2.41,0.8-5.43,0.68-8.14
		C528.17,190.97,527.52,178.07,526.91,165.15z"/>
	<path class="st0" d="M240.78,243.19c-8.61,0-8.82,0-9.5-8.2c-0.71-8.27-0.96-16.56-1.33-24.86c-1.36-31.49-2.68-62.96-4.04-94.45
		c-0.15-3.52-0.4-7.06-0.71-10.58c-0.22-2.28,0.43-3.42,2.99-3.24c13.66,0.96,27.45,0.89,40.93,2.93
		c16.1,2.44,24.18,12.68,21.65,29.77c-1.3,8.95-1.73,18.04-2.71,27.05c-2.13,19.46-4.26,38.93-6.57,58.36
		c-0.34,2.84-1.51,5.64-2.47,8.39c-3.82,10.86-8.02,13.82-19.34,14c-3.24,0.06-6.48,0.06-9.72,0.22
		C246.95,242.73,243.87,242.97,240.78,243.19z M250.19,214.59c0,2.62-0.15,5.24,0.09,7.83c0.06,0.77,1.33,1.97,2.04,2
		c4.35,0.09,7.5-2.71,8.08-7.13c1.17-8.36,2.25-16.72,3.3-25.11c1.3-10.36,2.68-20.7,3.76-31.06c0.89-8.39-3.64-13.17-11.38-12.12
		c0,0-1.85,0.86-2.99,3.24C249.67,159.47,250.13,208.8,250.19,214.59z"/>
	<path class="st0" d="M652.97,242.36c-8.58,0.8-8.79,0.83-9.5-7.4c-0.71-8.11-0.96-16.26-1.3-24.4c-1.36-31.8-2.68-63.6-4.04-95.41
		c-0.15-3.52-0.62-7.06-0.59-10.58c0-0.89,1.39-2.59,2.04-2.56c15.92,1.11,32.11-0.96,47.69,4.29c9.28,3.12,15.24,10.12,14.93,19.86
		c-0.4,11.97-1.73,23.91-2.81,35.84c-1.73,18.97-3.39,37.94-5.52,56.88c-0.74,6.66-2.78,13.05-7.87,18.2
		c-3.64,3.7-7.5,5.49-12.68,5.31C666.54,242.17,659.76,242.36,652.97,242.36z M662.63,213.48c-0.09,0-0.15,0-0.25,0
		c0,2.93-0.09,5.86,0.06,8.76c0.03,0.74,0.89,1.94,1.45,2c4.32,0.46,8.14-2.59,8.7-6.88c2.41-18.72,4.87-37.45,7.06-56.17
		c1.02-8.61-3.39-12.83-11.81-12.4c-2.81,0.15-3.61,1.14-3.67,3.86C663.77,172.95,663.18,193.22,662.63,213.48z"/>
	<path class="st0" d="M405.44,105.96c0.65,0.15,2.13,0.46,3.15,1.7c0.83,0.99,1.17,2.41,1.05,4.29c-0.83,12.58-1.23,25.17-2,37.75
		c-0.06,1.17-1.57,3.02-2.68,3.27c-7.03,1.6-14.1,3.12-21.22,4.16c-5.8,0.86-9.35,3.55-10.27,8.88c-1.2,6.85,0.22,10.3,6.11,12.71
		c8.08,3.33,16.44,5.98,24.46,9.41c2.47,1.05,5.09,3.33,6.14,5.71c1.7,3.86,2.65,8.2,2.96,12.4c0.49,6.42,0.19,12.92,0.19,19.37
		c0,9.5-4.9,16.13-14.4,17.24c-12.52,1.48-25.2,1.85-37.82,2.5c-0.74,0.03-2.22-1.54-2.28-2.44c-0.31-5.21-0.43-10.46-0.28-15.67
		c0.03-0.93,1.63-2.44,2.65-2.56c5.95-0.74,12-0.89,17.92-1.85c1.91-0.31,4.29-2.04,5.15-3.76c3.36-6.63-0.43-14.59-7.56-16.81
		c-5.31-1.63-10.52-3.55-15.92-4.84c-5.34-1.3-8.82-4.5-10.49-9.41c-1.33-3.89-2.47-8.02-2.62-12.09
		c-0.65-17.67-1.11-35.35-1.26-53.02c-0.03-4.78,1.23-8.82,3.61-12.03c1.36-1.79,3.98-4.5,11.78-7.09
		C361.79,103.83,374.96,99.45,405.44,105.96z"/>
	<path class="st0" d="M445.13,180.08c0.4,7.99,1.36,15.98,1.05,23.94c-0.37,9.07,4.97,12.55,14.07,13.36
		c5.37,0.46,10.8,0.25,16.19,0.12c2.53-0.06,3.61,0.65,3.49,3.36c-0.28,5.68-0.03,11.41-0.49,17.06c-0.12,1.45-1.94,3.86-3.15,3.95
		c-8.73,0.77-17.52,1.85-26.22,1.36c-15.76-0.89-25.6-12.09-25.85-27.98c-0.25-15.36-0.19-30.75-0.93-46.11
		c-0.68-14.56-1.97-29.12-3.39-43.65c-1.14-11.54,3.05-18.35,13.97-22.3c13.97-5,28.35-3.02,42.63-3.08c0.49,0,1.45,1.48,1.45,2.25
		c-0.19,11.69-0.59,23.38-0.71,35.04c-0.03,2.65-1.08,3.45-3.45,3.61c-4.44,0.31-8.88,1.05-13.36,1.08
		c-7.65,0.06-11.47,2.04-12.92,9.5c-1.48,7.77-1.48,15.82-2.1,23.78c-0.12,1.54-0.03,3.08-0.03,4.63
		C445.32,180.05,445.23,180.05,445.13,180.08z"/>
	<path class="st0" d="M334.24,121.5c-0.62,31.68-1.26,63.36-1.91,95c-0.15,7.99-0.52,15.98-0.59,23.97
		c-0.03,2.75-0.77,3.82-3.7,3.64c-6.14-0.4-12.34-0.43-18.48-0.83c-1.02-0.06-2.65-1.14-2.81-1.97c-0.8-4.94-1.57-9.9-1.76-14.87
		c-1.42-37.17-2.71-74.37-4.07-111.54c-0.09-2.93-0.34-5.83-0.62-8.73c-0.22-2.44,0.65-3.18,3.18-2.99
		c9.07,0.62,18.17,1.14,27.24,1.36c3.08,0.09,3.98,1.11,3.82,4.04c-0.22,4.29-0.06,8.61-0.06,12.92
		C334.43,121.5,334.34,121.5,334.24,121.5z"/>
	<path class="st1" d="M602.14,53.86c0,9.5-0.19,19.03,0.09,28.53c0.12,4.32-2.5,3.7-5.06,3.67c-2.5-0.03-5.12,0.83-5.15-3.58
		c-0.15-19.68-0.59-39.33-1.08-59.01c-0.06-3.05,0.77-4.13,3.86-3.92c3.67,0.25,7.4,0.28,11.1,0.12c3.02-0.12,4.16,0.93,4.75,4.04
		c1.88,10.46,4.23,20.79,6.51,31.68c0-12.06,0-23.5,0-34.98c0-2.68-0.86-5.46,3.82-5.31c8.88,0.31,9.01,0.06,8.88,5.27
		c-0.52,20.42-1.17,40.84-1.6,61.29c-0.06,2.87-1.05,3.92-3.79,3.52c-0.46-0.06-0.93,0-1.39,0c-12.8,0.22-12.8,0.19-15.27-12.52
		c-0.96-4.97-2.04-9.93-3.08-14.87c-0.28-1.33-0.65-2.62-0.99-3.95C603.19,53.89,602.66,53.89,602.14,53.86z"/>
	<path class="st1" d="M407.63,55.09c0-10.52,0.15-22.95-0.09-35.41c-0.09-3.79,1.08-4.63,4.66-4.5c9.13,0.31,8.91,0.15,8.67,9.28
		c-0.56,18.75-0.96,37.51-1.17,56.29c-0.03,3.73-1.2,4.57-4.75,4.57c-13.08-0.03-12.99,0.09-15.85-12.96
		c-1.3-5.92-3.12-11.72-5.43-17.67c-0.22,2.1-0.59,4.16-0.62,6.26c-0.19,6.91-0.49,13.85-0.25,20.76c0.12,3.92-1.48,4.47-4.84,4.5
		c-3.39,0.06-4.47-0.86-4.5-4.38c-0.19-18.45-0.62-36.89-0.99-55.37c-0.12-6.85-0.12-6.85,6.85-6.79
		c11.69,0.09,11.72,0.09,13.85,11.32C404.82,39.73,406.39,48.46,407.63,55.09z"/>
	<path class="st1" d="M352.07,34.03c-0.59,13.97-0.93,27.95-1.88,41.89c-0.49,7.37-4.94,10.36-12.83,11.07
		c-8.54,0.77-14.19-4.04-14.99-10.24c-1.17-8.82-1.88-17.71-2.56-26.56c-0.59-7.34-1.11-14.71-1.17-22.09
		c-0.03-8.08,3.12-10.98,11.29-11.2c4.01-0.09,8.02-0.15,12.03-0.03c7.28,0.19,9.93,2.96,10.06,10.24c0.03,2.31,0,4.63,0,6.91
		C352.04,34.03,352.04,34.03,352.07,34.03z M332.46,46.95c0.62,7.46,1.14,14.96,2,22.39c0.12,1.11,1.73,2.07,2.62,3.12
		c0.68-1.08,1.97-2.16,1.94-3.24c-0.06-9.62-0.25-19.28-0.71-28.87c-0.06-1.33-1.88-2.56-2.87-3.86c-1.05,1.51-2.1,3.02-3.15,4.53
		C332.33,43,332.39,44.98,332.46,46.95z"/>
	<path class="st1" d="M571.42,16.78c15.67-0.52,17.27,2.31,16.44,18.23c-0.65,12.43-0.99,24.89-1.36,37.35
		c-0.19,5.68-1.05,11.38-7.03,13.29c-6.45,2.07-13.6,3.36-18.54-3.39c-1.6-2.19-2.81-5.12-3.08-7.8
		c-1.42-14.22-2.53-28.47-3.64-42.72C553.28,20.08,557.04,16.88,571.42,16.78z M574.28,49.45c0.03,0,0.06,0,0.12,0
		c0-2.59,0.4-5.31-0.12-7.77c-0.4-1.85-2.04-3.45-3.12-5.18c-1.05,1.82-3.05,3.67-2.99,5.46c0.25,8.7,0.93,17.43,1.79,26.1
		c0.15,1.63,1.82,3.15,2.78,4.72c0.8-1.67,2.31-3.3,2.31-4.97C575.05,61.69,574.59,55.56,574.28,49.45z"/>
	<path class="st1" d="M473.3,51.79c0-10.3,0.12-20.57-0.06-30.88c-0.06-3.12,1.08-3.86,4.01-3.89c9.84-0.06,9.47-0.22,8.73,9.78
		c-1.11,15.02-1.67,30.07-2.34,45.1c-0.4,8.64-4.23,13.36-12,14.25c-8.73,1.02-14.93-3.08-16.93-11.29
		c-0.37-1.48-0.65-3.02-0.68-4.53c-0.31-16.9-0.52-33.81-0.89-50.71c-0.06-3.12,0.56-4.26,4.1-3.95c8.91,0.74,8.51,0.52,8.24,9.59
		c-0.43,13.97-0.22,27.98-0.25,41.98c0,0.77-0.06,1.73,0.37,2.22c1.14,1.36,2.53,2.5,3.82,3.73c1.02-1.45,2.04-2.9,3.05-4.35
		C472.71,63.14,472.99,57.47,473.3,51.79z"/>
	<path class="st1" d="M520.49,26.99c0,1.39,0.03,2.78,0,4.16c-0.34,9.72-1.05,10.55-10.92,11.54c-3.49,0.37-6.88,1.02-6.51,5.31
		c0.15,1.97,1.67,4.53,3.33,5.55c3.24,1.97,7.06,3.02,10.61,4.47c0.86,0.34,2,0.43,2.53,1.05c5.18,6.35,3.21,13.82,2.62,20.82
		c-0.4,4.69-5.18,5.71-9.22,6.17c-4.6,0.52-9.22,0.49-13.82,0.93c-2.81,0.28-3.36-0.99-3.39-3.45c-0.03-8.95-0.59-7.13,6.85-7.5
		c2.99-0.15,6.23,0.03,6.57-4.04c0.31-3.73-1.57-6.05-5.31-6.91c-1.94-0.46-3.79-1.26-5.77-1.7c-4.35-0.99-6.82-3.86-7.09-8.05
		c-0.68-9.96-1.36-19.93-1.3-29.89c0.03-5.98,4.47-9.84,11.07-10.18c4.72-0.25,9.5,0.37,14.25,0.77c2.38,0.19,4.16,0.93,5.12,2.28
		c0.74,1.02,0.65,2.38,0.62,5.03C520.71,24.86,520.58,26.13,520.49,26.99z"/>
	<path class="st1" d="M312.81,24.06c-0.56,17.49-1.11,34.98-1.7,52.47c-0.19,5.43-2.1,7.62-7.53,8.79c-7.56,1.6-13.17,0-15.85-5.71
		c-1.39-2.93-1.54-6.91-0.8-10.06c0.28-1.17,4.75-1.54,7.37-1.82c0.89-0.09,2,1.11,2.87,1.91c0.77,0.74,1.33,1.73,1.94,2.59
		c0.43-1.17,1.3-2.38,1.23-3.55c-0.34-9.35-0.8-18.72-1.3-28.07c-0.4-7.19-0.83-14.4-1.39-21.59c-0.19-2.53,0.59-3.82,3.24-3.73
		c1.08,0.03,2.16,0,3.24-0.03C313.18,15.15,313.18,15.15,312.81,24.06z"/>
	<path class="st1" d="M375.95,23.51c-0.52,21.07-1.08,40.1-1.45,59.16c-0.06,2.9-0.96,3.64-3.73,3.55c-10.18-0.4-8.17,1.02-8.51-8.3
		c-0.37-9.99-0.56-19.99-1.08-29.95c-0.52-9.28-1.23-18.54-2.22-27.76c-0.37-3.64,0.71-4.81,4.2-4.29c1.2,0.19,2.47,0.06,3.7,0.09
		C378.08,16.44,375.79,15.12,375.95,23.51z"/>
	<path class="st1" d="M195.53,218.27c-0.93-53.27-0.93-106.94,0-161.08c0.03-2.16,0.06-4.32,0.12-6.45
		C195.59,106.57,195.56,162.4,195.53,218.27z"/>
	<path class="st1" d="M146.36,139.73c0.89-0.62,1.82-1.26,2.71-1.88c0.19,0.22,0.37,0.46,0.56,0.68c-0.77,0.71-1.54,1.42-2.31,2.1
		C147.01,140.35,146.7,140.04,146.36,139.73z"/>
	<path class="st1" d="M94.05,112.87c5.4,0.03,9.84,4.72,9.65,10.21c-0.19,5.61-4.69,10.18-9.96,10.12
		c-5.98-0.09-10.24-4.32-10.24-10.21C83.44,116.69,87.48,112.8,94.05,112.87z"/>
	<path class="st1" d="M139.12,123.11c-0.06,5.68-4.57,10.27-9.84,10.06c-6.08-0.25-10.52-4.84-10.33-10.7
		c0.19-5.71,4.63-9.65,10.77-9.62C135.38,112.9,139.18,117.06,139.12,123.11z"/>
	<path class="st1" d="M145.5,88.13c0.56,0.4,1.11,0.77,1.7,1.17c-0.56-0.09-1.14-0.19-1.7-0.28C145.5,88.71,145.5,88.41,145.5,88.13
		z"/>
	<path class="st1" d="M73.29,90.81c0.62-0.31,1.23-0.59,1.85-0.89l-0.06-0.06c-0.62,0.31-1.23,0.62-1.85,0.93L73.29,90.81z"/>
	<path class="st0" d="M75.14,89.92c0.49-0.46,0.96-0.96,1.45-1.42c0.15,0.22,0.34,0.43,0.52,0.62c-0.68,0.25-1.36,0.49-2.04,0.71
		C75.08,89.86,75.14,89.92,75.14,89.92z"/>
	<polygon class="st1" points="148.68,90.16 148.83,90.41 148.52,90.41 	"/>
	<path class="st0" d="M145.5,88.13c0,0.31,0,0.59-0.03,0.89c-0.43-0.19-0.86-0.37-1.3-0.56c0.22-0.22,0.43-0.46,0.65-0.68
		C145.04,87.88,145.29,88,145.5,88.13z"/>
	<path class="st1" d="M73.23,90.75c-0.06,0.09-0.09,0.22-0.15,0.31c0.06-0.09,0.12-0.19,0.19-0.25
		C73.29,90.81,73.23,90.75,73.23,90.75z"/>
</g>
</svg>
